<svg xmlns="http://www.w3.org/2000/svg" width="989" height="989" viewBox="0 0 989 989" version="1.1">
	<path d="M 788.500 1.619 C 784.100 2.363, 775.100 4.073, 768.500 5.419 C 761.900 6.765, 754.475 8.163, 752 8.525 C 749.525 8.887, 744.800 9.805, 741.500 10.566 C 725.263 14.309, 711.472 17.244, 701.500 19.078 C 695.450 20.191, 686.675 21.943, 682 22.972 C 677.325 24.001, 669.675 25.611, 665 26.551 C 660.325 27.491, 654.025 28.857, 651 29.587 C 647.975 30.317, 642.125 31.416, 638 32.029 C 633.875 32.642, 621.725 34.969, 611 37.199 C 600.275 39.429, 588.350 41.855, 584.500 42.590 C 580.650 43.325, 574.350 44.628, 570.500 45.486 C 566.650 46.344, 559 47.926, 553.500 49.001 C 542.277 51.194, 522.182 55.331, 500.500 59.913 C 495.550 60.959, 488.125 62.351, 484 63.006 C 475.279 64.390, 464.027 66.546, 455.500 68.466 C 452.200 69.209, 445.900 70.572, 441.500 71.495 C 437.100 72.419, 431.700 73.562, 429.500 74.036 C 427.300 74.510, 419.650 76.059, 412.500 77.479 C 358.518 88.193, 333.229 93.893, 328 96.526 C 321.450 99.824, 314.300 106.522, 311.203 112.261 C 309.716 115.015, 307.954 118.247, 307.287 119.443 C 306.620 120.639, 305.271 124.291, 304.290 127.559 C 302.600 133.184, 302.478 148.734, 302.003 419.500 L 301.500 705.500 298.896 711.045 C 293.838 721.813, 289.514 726.666, 281.657 730.388 C 277.721 732.253, 272.700 734.272, 270.500 734.874 C 263.720 736.729, 245.718 740.840, 241.500 741.496 C 239.300 741.838, 234.800 742.735, 231.500 743.488 C 228.200 744.241, 221.675 745.631, 217 746.576 C 206.456 748.709, 180.749 754.909, 167.740 758.457 C 145.319 764.572, 121.559 778.072, 108.500 792.116 C 96.090 805.462, 86.165 821.727, 81.220 836.824 C 77.785 847.308, 77.714 847.869, 77.253 868 C 76.597 896.669, 77.964 903.605, 88.686 926 C 93.295 935.628, 96.032 939.432, 108.196 953.113 C 119.246 965.542, 138.311 977.070, 157.111 982.692 C 166.338 985.452, 166.939 985.500, 192 985.492 C 224.316 985.481, 238.102 983.373, 267.802 973.897 C 283.480 968.895, 287.657 966.701, 306.697 953.474 C 319.948 944.268, 339.649 919.385, 346.446 903.268 C 349.613 895.759, 353.950 880.643, 356.100 869.620 C 359.982 849.712, 359.982 849.718, 359.991 591.855 C 360 344.983, 360.014 343.164, 362.026 336.651 C 366.052 323.615, 372.192 319.882, 398.500 314.473 C 416.732 310.725, 426.613 308.806, 446.500 305.152 C 456.665 303.285, 476.292 299.382, 487 297.098 C 489.475 296.571, 496 295.223, 501.500 294.104 C 517.917 290.765, 540.773 285.933, 552.500 283.322 C 558.550 281.976, 569.575 279.800, 577 278.488 C 600.548 274.325, 607.927 272.884, 638.500 266.476 C 647.850 264.517, 658.650 262.279, 662.500 261.505 C 666.350 260.730, 672.650 259.387, 676.500 258.520 C 680.350 257.653, 686.875 256.309, 691 255.532 C 695.125 254.755, 702.775 253.226, 708 252.134 C 713.225 251.042, 721.775 249.429, 727 248.550 C 732.225 247.670, 739.650 246.290, 743.500 245.482 C 747.350 244.674, 753.739 243.336, 757.697 242.507 C 761.656 241.678, 768.591 241, 773.110 241 C 779.988 241, 781.994 241.392, 785.441 243.413 C 790.233 246.221, 793.546 252.037, 794.967 260.135 C 795.537 263.386, 795.807 331.696, 795.652 433.500 C 795.366 621.409, 795.869 608.737, 788.270 619.769 C 783.137 627.222, 767.468 637, 760.659 637 C 758.777 637, 750.772 638.384, 742.869 640.074 C 734.966 641.765, 726.250 643.520, 723.500 643.974 C 720.750 644.427, 711.300 646.431, 702.500 648.427 C 693.700 650.423, 683.800 652.658, 680.500 653.394 C 667.780 656.231, 644.384 664.526, 630.500 671.120 C 619.545 676.324, 598.526 694.068, 592.522 703.181 C 590.958 705.556, 588.458 709.300, 586.968 711.500 C 579.708 722.216, 572.008 741.496, 570.115 753.694 C 568.579 763.597, 568.723 784.749, 570.398 795.065 C 573.087 811.628, 583.670 833.094, 596.951 848.921 C 606.762 860.612, 626.148 874.422, 640.809 880.164 C 643.178 881.092, 651.204 883.048, 658.644 884.510 C 670.785 886.897, 673.828 887.125, 688.336 886.737 C 704.114 886.315, 725.927 883.691, 741 880.401 C 770.343 873.996, 793.327 861.761, 813.151 841.990 C 827.593 827.587, 833.037 819.098, 841.999 797 C 849.085 779.531, 850.693 770.165, 852.048 738.500 C 852.662 724.161, 852.923 585.393, 852.741 370 C 852.467 43.772, 852.353 24.221, 850.698 19.500 C 848.212 12.406, 842.951 5.702, 837.462 2.635 C 832.823 0.042, 832.461 0.002, 814.624 0.133 C 804.656 0.207, 792.900 0.875, 788.500 1.619" stroke="none" fill="#ffffff" fill-rule="evenodd"/>
</svg>