<svg xmlns="http://www.w3.org/2000/svg" width="1280" height="1280" viewBox="0 0 1280 1280" version="1.1">
	<path d="M 297.649 1.095 C 274.852 3.501, 245.636 10.048, 223.804 17.643 C 216.750 20.097, 210.464 21.787, 209.835 21.398 C 209.157 20.979, 208.964 21.132, 209.360 21.773 C 210.170 23.084, 206.490 24.421, 204.854 23.410 C 204.177 22.991, 203.959 23.125, 204.333 23.729 C 205.154 25.059, 199.518 27.438, 197.906 26.442 C 197.076 25.929, 196.950 26.111, 197.510 27.015 C 198.109 27.985, 197.868 28.164, 196.612 27.681 C 195.456 27.238, 195.130 27.401, 195.612 28.181 C 196.095 28.962, 195.769 29.125, 194.612 28.681 C 193.668 28.319, 193.139 28.416, 193.435 28.895 C 194.184 30.107, 188.398 32.364, 186.906 31.442 C 186.076 30.929, 185.950 31.111, 186.510 32.015 C 187.109 32.985, 186.868 33.164, 185.612 32.681 C 184.456 32.238, 184.130 32.401, 184.612 33.181 C 185.095 33.962, 184.769 34.125, 183.612 33.681 C 182.456 33.238, 182.130 33.401, 182.612 34.181 C 183.095 34.962, 182.769 35.125, 181.612 34.681 C 180.635 34.306, 180.148 34.430, 180.481 34.969 C 181.251 36.215, 175.268 39.284, 173.816 38.386 C 173.078 37.930, 172.973 38.147, 173.510 39.015 C 174.109 39.985, 173.868 40.164, 172.612 39.681 C 171.456 39.238, 171.130 39.401, 171.612 40.181 C 172.095 40.962, 171.769 41.125, 170.612 40.681 C 169.456 40.238, 169.130 40.401, 169.612 41.181 C 170.089 41.953, 169.777 42.128, 168.676 41.706 C 167.657 41.315, 167.115 41.537, 167.262 42.286 C 167.393 42.954, 166.717 43.438, 165.761 43.363 C 164.772 43.285, 164.303 43.682, 164.675 44.283 C 165.081 44.940, 164.703 45.100, 163.676 44.706 C 162.657 44.315, 162.115 44.537, 162.262 45.286 C 162.393 45.954, 161.717 46.438, 160.761 46.363 C 159.772 46.285, 159.303 46.682, 159.675 47.283 C 160.079 47.937, 159.707 48.101, 158.696 47.714 C 157.798 47.369, 156.755 47.587, 156.378 48.198 C 155.933 48.918, 156.152 49.024, 157 48.500 C 157.892 47.949, 158.068 48.080, 157.553 48.914 C 157.138 49.586, 156.174 49.897, 155.411 49.604 C 154.648 49.311, 154.131 49.618, 154.262 50.286 C 154.393 50.954, 153.717 51.438, 152.761 51.363 C 151.772 51.285, 151.303 51.682, 151.675 52.283 C 152.079 52.937, 151.707 53.101, 150.696 52.714 C 149.798 52.369, 148.755 52.587, 148.378 53.198 C 147.933 53.918, 148.152 54.024, 149 53.500 C 149.892 52.949, 150.068 53.080, 149.553 53.914 C 149.138 54.586, 148.183 54.900, 147.431 54.612 C 146.679 54.323, 145.755 54.587, 145.378 55.198 C 144.937 55.911, 145.195 56.048, 146.095 55.580 C 146.868 55.180, 146.646 55.546, 145.603 56.394 C 144.559 57.242, 143.311 57.692, 142.828 57.394 C 142.345 57.095, 142.074 57.447, 142.225 58.176 C 142.376 58.904, 141.744 59.506, 140.821 59.513 C 139.897 59.520, 138.772 59.929, 138.321 60.423 C 137.843 60.946, 138.086 60.981, 138.905 60.506 C 139.879 59.940, 140.078 60.065, 139.553 60.914 C 139.138 61.586, 138.201 61.907, 137.472 61.628 C 136.743 61.348, 135.551 61.880, 134.823 62.809 C 133.607 64.363, 133.662 64.379, 135.500 63 C 137.367 61.600, 137.406 61.620, 136.090 63.296 C 135.314 64.283, 134.110 64.872, 133.413 64.605 C 132.716 64.338, 131.551 64.880, 130.823 65.809 C 129.607 67.363, 129.662 67.379, 131.500 66 C 133.367 64.600, 133.406 64.620, 132.090 66.296 C 131.314 67.283, 130.110 67.872, 129.413 67.605 C 128.716 67.338, 127.551 67.880, 126.823 68.809 C 125.609 70.361, 125.664 70.378, 127.500 69.017 C 129.487 67.544, 129.487 67.549, 127.563 69.803 C 126.498 71.050, 125.068 71.856, 124.386 71.595 C 123.704 71.333, 122.551 71.880, 121.823 72.809 C 120.619 74.347, 120.681 74.376, 122.500 73.125 C 123.600 72.369, 123.230 72.938, 121.678 74.390 C 120.125 75.841, 118.498 76.808, 118.061 76.538 C 117.625 76.268, 116.420 77.049, 115.384 78.274 C 113.516 80.481, 113.518 80.487, 115.555 79 C 116.686 78.175, 116.327 78.751, 114.757 80.279 C 113.187 81.808, 111.550 82.840, 111.117 82.572 C 110.685 82.305, 108.344 84.205, 105.916 86.793 L 101.500 91.500 106.066 87.500 C 108.577 85.300, 107.544 86.517, 103.770 90.205 C 99.997 93.892, 93.892 99.996, 90.205 103.768 C 86.517 107.541, 85.525 108.349, 88 105.564 L 92.500 100.500 87.295 105.418 C 84.432 108.123, 82.308 110.689, 82.574 111.120 C 82.840 111.551, 81.808 113.184, 80.279 114.750 C 78.011 117.073, 77.868 117.128, 79.500 115.048 L 81.500 112.500 78.781 114.895 C 77.285 116.213, 76.279 117.643, 76.545 118.073 C 76.811 118.503, 76.010 119.922, 74.764 121.227 C 73.261 122.801, 73.004 122.910, 74 121.549 C 75.480 119.528, 75.471 119.525, 73.317 121.344 C 72.117 122.358, 71.345 123.737, 71.603 124.407 C 71.860 125.078, 71.042 126.498, 69.785 127.563 L 67.500 129.500 69.500 127 L 71.500 124.500 69.317 126.344 C 68.117 127.358, 67.350 128.749, 67.613 129.434 C 67.876 130.119, 67.283 131.314, 66.296 132.090 C 64.620 133.406, 64.600 133.367, 66 131.500 C 67.379 129.662, 67.363 129.607, 65.809 130.823 C 64.880 131.551, 64.338 132.716, 64.605 133.413 C 64.872 134.110, 64.283 135.314, 63.296 136.090 C 61.658 137.376, 61.621 137.346, 62.872 135.750 C 63.627 134.787, 63.995 134, 63.691 134 C 63.386 134, 62.111 135.463, 60.857 137.250 C 58.882 140.067, 58.840 140.300, 60.539 139 C 62.395 137.580, 62.424 137.607, 61.073 139.500 C 60.288 140.600, 58.488 142.562, 57.073 143.860 C 55.658 145.158, 55.175 145.864, 56 145.430 C 56.825 144.995, 56.038 146.026, 54.250 147.721 C 51.090 150.717, 49.879 152.811, 52.100 151.438 C 52.873 150.961, 52.862 151.389, 52.065 152.879 C 51.440 154.046, 50.694 155, 50.406 155 C 50.118 155, 50.203 154.480, 50.595 153.845 C 51.028 153.146, 50.871 152.962, 50.198 153.378 C 49.587 153.755, 49.323 154.679, 49.612 155.431 C 49.900 156.183, 49.586 157.138, 48.914 157.553 C 48.080 158.068, 47.949 157.892, 48.500 157 C 49.024 156.152, 48.918 155.933, 48.198 156.378 C 47.587 156.755, 47.303 157.625, 47.566 158.311 C 47.829 158.996, 47.334 160.444, 46.467 161.529 C 44.961 163.411, 44.940 163.387, 46 161 C 47.023 158.697, 46.993 158.645, 45.624 160.347 C 44.806 161.363, 44.341 162.726, 44.591 163.376 C 44.840 164.026, 44.326 165.444, 43.448 166.529 C 42.570 167.613, 42.180 167.868, 42.580 167.095 C 43.048 166.195, 42.911 165.937, 42.198 166.378 C 41.587 166.755, 41.369 167.798, 41.714 168.696 C 42.166 169.875, 41.972 170.101, 41.015 169.510 C 40.150 168.975, 39.930 169.078, 40.381 169.808 C 41.281 171.263, 36.222 181.255, 34.976 180.485 C 34.429 180.147, 34.304 180.628, 34.681 181.612 C 35.125 182.769, 34.962 183.095, 34.181 182.612 C 33.401 182.130, 33.238 182.456, 33.681 183.612 C 34.125 184.769, 33.962 185.095, 33.181 184.612 C 32.401 184.130, 32.238 184.456, 32.681 185.612 C 33.164 186.868, 32.985 187.109, 32.015 186.510 C 31.095 185.941, 30.928 186.075, 31.468 186.949 C 32.461 188.555, 28.040 198.143, 26.691 197.309 C 26.109 196.949, 26.005 197.198, 26.442 197.906 C 27.438 199.518, 25.059 205.154, 23.729 204.333 C 23.125 203.959, 22.991 204.177, 23.410 204.854 C 24.421 206.490, 23.084 210.170, 21.773 209.360 C 21.126 208.960, 20.980 209.158, 21.410 209.854 C 22.421 211.490, 21.084 215.170, 19.773 214.360 C 19.131 213.963, 18.979 214.157, 19.400 214.839 C 19.791 215.470, 18.255 221.687, 15.989 228.654 C 10.734 244.806, 5.724 265.665, 2.815 283.500 L 0.532 297.500 0.238 634 C -0.026 936.242, 0.106 971.925, 1.534 984.500 C 4.382 1009.585, 10.047 1034.622, 17.995 1057.248 C 20.264 1063.709, 21.799 1069.516, 21.406 1070.152 C 20.979 1070.842, 21.128 1071.039, 21.773 1070.640 C 23.084 1069.830, 24.421 1073.510, 23.410 1075.146 C 22.991 1075.823, 23.125 1076.041, 23.729 1075.667 C 25.059 1074.846, 27.438 1080.482, 26.442 1082.094 C 25.929 1082.924, 26.111 1083.050, 27.015 1082.490 C 27.985 1081.891, 28.164 1082.132, 27.681 1083.388 C 27.319 1084.332, 27.379 1084.884, 27.813 1084.615 C 28.939 1083.920, 40.187 1106.888, 39.369 1108.212 C 38.931 1108.921, 39.159 1109.020, 40.015 1108.490 C 40.961 1107.906, 41.168 1108.121, 40.739 1109.239 C 40.408 1110.101, 40.806 1111.637, 41.624 1112.653 C 43.011 1114.376, 43.037 1114.349, 42.020 1112.250 C 40.373 1108.851, 41.717 1109.552, 43.515 1113.029 C 44.377 1114.696, 44.831 1116.464, 44.525 1116.960 C 44.218 1117.456, 44.494 1118.187, 45.138 1118.585 C 45.869 1119.037, 46.041 1118.876, 45.595 1118.155 C 45.203 1117.520, 45.118 1117, 45.406 1117 C 45.694 1117, 46.440 1117.954, 47.065 1119.121 C 47.936 1120.749, 47.921 1121.069, 47 1120.500 C 46.079 1119.931, 46.064 1120.251, 46.935 1121.879 C 47.560 1123.046, 48.306 1124, 48.594 1124 C 48.882 1124, 48.827 1123.437, 48.472 1122.750 C 48.117 1122.063, 48.758 1122.625, 49.895 1124 C 51.033 1125.375, 51.767 1127.048, 51.526 1127.718 C 51.285 1128.388, 51.587 1129.245, 52.198 1129.622 C 52.918 1130.067, 53.024 1129.848, 52.500 1129 C 51.949 1128.108, 52.080 1127.932, 52.914 1128.447 C 53.586 1128.862, 53.900 1129.817, 53.612 1130.569 C 53.323 1131.321, 53.587 1132.245, 54.198 1132.622 C 54.918 1133.067, 55.024 1132.848, 54.500 1132 C 53.949 1131.108, 54.080 1130.932, 54.914 1131.447 C 55.586 1131.862, 55.900 1132.817, 55.612 1133.569 C 55.323 1134.321, 55.587 1135.245, 56.198 1135.622 C 56.918 1136.067, 57.024 1135.848, 56.500 1135 C 55.949 1134.108, 56.080 1133.932, 56.914 1134.447 C 57.586 1134.862, 57.900 1135.817, 57.612 1136.569 C 57.323 1137.321, 57.587 1138.245, 58.198 1138.622 C 58.918 1139.067, 59.024 1138.848, 58.500 1138 C 57.949 1137.108, 58.080 1136.932, 58.914 1137.447 C 59.586 1137.862, 59.907 1138.799, 59.628 1139.528 C 59.348 1140.257, 59.880 1141.449, 60.809 1142.177 C 62.329 1143.366, 62.361 1143.323, 61.128 1141.750 C 60.373 1140.787, 60.005 1140, 60.309 1140 C 60.614 1140, 61.889 1141.463, 63.143 1143.250 C 65.148 1146.109, 65.186 1146.332, 63.461 1145.104 C 62.382 1144.337, 63.262 1145.272, 65.416 1147.182 C 67.569 1149.092, 69.037 1151.132, 68.677 1151.714 C 68.317 1152.297, 68.805 1153.387, 69.761 1154.137 C 71.274 1155.322, 71.370 1155.299, 70.500 1153.953 C 69.950 1153.102, 70.285 1153.261, 71.245 1154.307 C 72.204 1155.353, 72.777 1156.551, 72.518 1156.971 C 72.259 1157.390, 73.049 1158.580, 74.274 1159.616 C 76.480 1161.483, 76.486 1161.481, 75 1159.451 C 74.004 1158.090, 74.261 1158.199, 75.764 1159.773 C 77.010 1161.078, 77.811 1162.497, 77.545 1162.927 C 77.279 1163.357, 78.285 1164.787, 79.781 1166.105 L 82.500 1168.500 80.500 1165.952 C 78.868 1163.872, 79.011 1163.927, 81.279 1166.250 C 82.808 1167.816, 83.844 1169.443, 83.583 1169.866 C 82.909 1170.956, 108.532 1196.314, 110.615 1196.620 C 111.560 1196.758, 113.721 1198.350, 115.417 1200.156 L 118.500 1203.440 115.500 1200.970 L 112.500 1198.500 114.856 1201.178 C 116.153 1202.651, 117.756 1203.647, 118.420 1203.392 C 119.083 1203.138, 120.498 1203.950, 121.563 1205.197 C 123.487 1207.451, 123.487 1207.456, 121.500 1205.983 C 119.651 1204.612, 119.603 1204.631, 120.863 1206.239 C 121.613 1207.195, 122.579 1207.760, 123.009 1207.494 C 123.440 1207.228, 124.647 1207.796, 125.693 1208.755 C 126.739 1209.715, 126.898 1210.050, 126.047 1209.500 C 124.714 1208.638, 124.683 1208.734, 125.823 1210.191 C 126.551 1211.120, 127.716 1211.662, 128.413 1211.395 C 129.110 1211.128, 130.314 1211.691, 131.090 1212.646 C 132.294 1214.130, 132.295 1214.260, 131.095 1213.537 C 130.135 1212.959, 129.920 1213.061, 130.415 1213.862 C 130.813 1214.506, 131.491 1214.815, 131.922 1214.548 C 132.353 1214.282, 133.559 1214.758, 134.603 1215.606 C 135.646 1216.454, 135.868 1216.820, 135.095 1216.420 C 134.195 1215.952, 133.937 1216.089, 134.378 1216.802 C 134.755 1217.413, 135.653 1217.687, 136.372 1217.411 C 137.091 1217.135, 138.314 1217.691, 139.090 1218.646 C 140.294 1220.130, 140.295 1220.260, 139.095 1219.537 C 138.162 1218.975, 137.921 1219.064, 138.378 1219.802 C 138.755 1220.413, 139.679 1220.677, 140.431 1220.388 C 141.183 1220.100, 142.138 1220.414, 142.553 1221.086 C 143.068 1221.920, 142.892 1222.051, 142 1221.500 C 141.152 1220.976, 140.933 1221.082, 141.378 1221.802 C 141.755 1222.413, 142.679 1222.677, 143.431 1222.388 C 144.183 1222.100, 145.138 1222.414, 145.553 1223.086 C 146.078 1223.935, 145.879 1224.060, 144.905 1223.494 C 144.086 1223.019, 143.843 1223.054, 144.321 1223.577 C 144.772 1224.071, 145.897 1224.480, 146.821 1224.487 C 147.744 1224.494, 148.405 1225.010, 148.289 1225.632 C 148.173 1226.255, 148.848 1226.705, 149.789 1226.632 C 150.730 1226.560, 151.393 1227.046, 151.262 1227.714 C 151.131 1228.382, 151.648 1228.689, 152.411 1228.396 C 153.174 1228.103, 154.138 1228.414, 154.553 1229.086 C 155.068 1229.920, 154.892 1230.051, 154 1229.500 C 153.152 1228.976, 152.933 1229.082, 153.378 1229.802 C 153.755 1230.413, 154.798 1230.631, 155.696 1230.286 C 156.707 1229.899, 157.079 1230.063, 156.675 1230.717 C 156.303 1231.318, 156.772 1231.715, 157.761 1231.637 C 158.723 1231.561, 159.377 1232.092, 159.225 1232.824 C 159.074 1233.553, 159.402 1233.869, 159.955 1233.528 C 161.308 1232.692, 165.207 1234.856, 164.476 1236.039 C 164.148 1236.569, 164.643 1236.691, 165.612 1236.319 C 166.692 1235.904, 167.086 1236.052, 166.675 1236.717 C 166.303 1237.318, 166.772 1237.715, 167.761 1237.637 C 168.717 1237.562, 169.393 1238.046, 169.262 1238.714 C 169.115 1239.463, 169.657 1239.685, 170.676 1239.294 C 171.777 1238.872, 172.089 1239.047, 171.612 1239.819 C 171.130 1240.599, 171.456 1240.762, 172.612 1240.319 C 173.769 1239.875, 174.095 1240.038, 173.612 1240.819 C 173.130 1241.599, 173.456 1241.762, 174.612 1241.319 C 175.769 1240.875, 176.095 1241.038, 175.612 1241.819 C 175.130 1242.599, 175.456 1242.762, 176.612 1242.319 C 177.868 1241.836, 178.109 1242.015, 177.510 1242.985 C 176.982 1243.839, 177.079 1244.069, 177.782 1243.634 C 179.118 1242.809, 190.092 1248.041, 189.395 1249.171 C 189.120 1249.614, 189.668 1249.681, 190.612 1249.319 C 191.769 1248.875, 192.095 1249.038, 191.612 1249.819 C 191.130 1250.599, 191.456 1250.762, 192.612 1250.319 C 193.769 1249.875, 194.095 1250.038, 193.612 1250.819 C 193.130 1251.599, 193.456 1251.762, 194.612 1251.319 C 195.868 1250.836, 196.109 1251.015, 195.510 1251.985 C 194.950 1252.889, 195.076 1253.071, 195.906 1252.558 C 197.518 1251.562, 203.154 1253.941, 202.333 1255.271 C 201.959 1255.875, 202.177 1256.009, 202.854 1255.590 C 204.490 1254.579, 208.170 1255.916, 207.360 1257.227 C 206.960 1257.874, 207.158 1258.020, 207.854 1257.590 C 209.490 1256.579, 213.170 1257.916, 212.360 1259.227 C 211.976 1259.848, 212.154 1260.023, 212.779 1259.636 C 213.378 1259.266, 219.860 1260.959, 227.184 1263.397 C 250.691 1271.224, 276.088 1276.590, 301 1278.992 C 309.236 1279.786, 407.445 1280.011, 647 1279.784 L 981.500 1279.468 995.500 1277.182 C 1003.200 1275.925, 1014.418 1273.790, 1020.430 1272.438 C 1026.441 1271.086, 1032.291 1270.239, 1033.430 1270.555 C 1034.703 1270.909, 1035.038 1270.806, 1034.299 1270.287 C 1032.841 1269.262, 1057.648 1261.664, 1059.240 1262.649 C 1059.843 1263.021, 1060.020 1262.841, 1059.645 1262.235 C 1058.827 1260.911, 1065.475 1258.557, 1067.135 1259.583 C 1067.841 1260.020, 1068.043 1259.878, 1067.640 1259.227 C 1066.830 1257.916, 1070.510 1256.579, 1072.146 1257.590 C 1072.842 1258.020, 1073.040 1257.874, 1072.640 1257.227 C 1071.830 1255.916, 1075.510 1254.579, 1077.146 1255.590 C 1077.923 1256.070, 1078.037 1255.869, 1077.490 1254.985 C 1076.891 1254.015, 1077.132 1253.836, 1078.388 1254.319 C 1079.334 1254.682, 1079.850 1254.566, 1079.537 1254.061 C 1078.803 1252.872, 1082.627 1251.651, 1084.146 1252.590 C 1084.923 1253.070, 1085.037 1252.869, 1084.490 1251.985 C 1083.891 1251.015, 1084.132 1250.836, 1085.388 1251.319 C 1086.544 1251.762, 1086.870 1251.599, 1086.388 1250.819 C 1085.905 1250.038, 1086.231 1249.875, 1087.388 1250.319 C 1088.544 1250.762, 1088.870 1250.599, 1088.388 1249.819 C 1087.905 1249.038, 1088.231 1248.875, 1089.388 1249.319 C 1090.544 1249.762, 1090.870 1249.599, 1090.388 1248.819 C 1089.905 1248.038, 1090.231 1247.875, 1091.388 1248.319 C 1092.544 1248.762, 1092.870 1248.599, 1092.388 1247.819 C 1091.905 1247.038, 1092.231 1246.875, 1093.388 1247.319 C 1094.332 1247.681, 1094.858 1247.579, 1094.558 1247.093 C 1093.855 1245.957, 1096.846 1244.787, 1098.245 1245.651 C 1098.921 1246.069, 1099.010 1245.826, 1098.490 1244.985 C 1097.891 1244.015, 1098.132 1243.836, 1099.388 1244.319 C 1100.544 1244.762, 1100.870 1244.599, 1100.388 1243.819 C 1099.905 1243.038, 1100.231 1242.875, 1101.388 1243.319 C 1102.544 1243.762, 1102.870 1243.599, 1102.388 1242.819 C 1101.905 1242.038, 1102.231 1241.875, 1103.388 1242.319 C 1104.544 1242.762, 1104.870 1242.599, 1104.388 1241.819 C 1103.905 1241.038, 1104.231 1240.875, 1105.388 1241.319 C 1106.544 1241.762, 1106.870 1241.599, 1106.388 1240.819 C 1105.905 1240.038, 1106.231 1239.875, 1107.388 1240.319 C 1108.365 1240.694, 1108.852 1240.570, 1108.519 1240.031 C 1107.790 1238.852, 1113.693 1235.692, 1115.054 1236.533 C 1115.602 1236.872, 1115.926 1236.553, 1115.775 1235.824 C 1115.623 1235.092, 1116.277 1234.561, 1117.239 1234.637 C 1118.228 1234.715, 1118.697 1234.318, 1118.325 1233.717 C 1117.919 1233.060, 1118.297 1232.900, 1119.324 1233.294 C 1120.343 1233.685, 1120.885 1233.463, 1120.738 1232.714 C 1120.607 1232.046, 1121.283 1231.562, 1122.239 1231.637 C 1123.228 1231.715, 1123.697 1231.318, 1123.325 1230.717 C 1122.921 1230.063, 1123.293 1229.899, 1124.304 1230.286 C 1125.202 1230.631, 1126.245 1230.413, 1126.622 1229.802 C 1127.067 1229.082, 1126.848 1228.976, 1126 1229.500 C 1125.108 1230.051, 1124.932 1229.920, 1125.447 1229.086 C 1125.862 1228.414, 1126.817 1228.100, 1127.569 1228.388 C 1128.321 1228.677, 1129.245 1228.413, 1129.622 1227.802 C 1130.067 1227.082, 1129.848 1226.976, 1129 1227.500 C 1128.108 1228.051, 1127.932 1227.920, 1128.447 1227.086 C 1128.862 1226.414, 1129.817 1226.100, 1130.569 1226.388 C 1131.321 1226.677, 1132.245 1226.413, 1132.622 1225.802 C 1133.067 1225.082, 1132.848 1224.976, 1132 1225.500 C 1131.108 1226.051, 1130.932 1225.920, 1131.447 1225.086 C 1131.862 1224.414, 1132.817 1224.100, 1133.569 1224.388 C 1134.321 1224.677, 1135.245 1224.413, 1135.622 1223.802 C 1136.067 1223.082, 1135.848 1222.976, 1135 1223.500 C 1134.108 1224.051, 1133.932 1223.920, 1134.447 1223.086 C 1134.862 1222.414, 1135.817 1222.100, 1136.569 1222.388 C 1137.321 1222.677, 1138.245 1222.413, 1138.622 1221.802 C 1139.067 1221.082, 1138.815 1220.960, 1137.905 1221.455 C 1137.132 1221.876, 1137.850 1221.060, 1139.500 1219.642 C 1141.150 1218.225, 1143.048 1217.256, 1143.718 1217.489 C 1144.388 1217.722, 1145.245 1217.413, 1145.622 1216.802 C 1146.079 1216.064, 1145.838 1215.975, 1144.905 1216.537 C 1143.705 1217.260, 1143.706 1217.130, 1144.910 1215.646 C 1145.686 1214.691, 1146.890 1214.128, 1147.587 1214.395 C 1148.284 1214.662, 1149.449 1214.120, 1150.177 1213.191 C 1151.393 1211.637, 1151.338 1211.621, 1149.500 1213 C 1147.633 1214.400, 1147.594 1214.380, 1148.910 1212.704 C 1149.686 1211.717, 1150.890 1211.128, 1151.587 1211.395 C 1152.284 1211.662, 1153.449 1211.120, 1154.177 1210.191 C 1155.391 1208.639, 1155.336 1208.622, 1153.500 1209.983 C 1151.513 1211.456, 1151.513 1211.451, 1153.437 1209.197 C 1154.502 1207.950, 1155.922 1207.140, 1156.593 1207.397 C 1157.263 1207.655, 1158.642 1206.883, 1159.656 1205.683 C 1161.475 1203.529, 1161.472 1203.520, 1159.451 1205 C 1158.090 1205.996, 1158.199 1205.739, 1159.773 1204.236 C 1161.078 1202.990, 1162.497 1202.189, 1162.927 1202.455 C 1163.357 1202.721, 1164.787 1201.715, 1166.105 1200.219 L 1168.500 1197.500 1165.949 1199.500 C 1164.546 1200.600, 1164.896 1200.019, 1166.728 1198.209 C 1168.560 1196.399, 1170.414 1195.138, 1170.848 1195.406 C 1171.984 1196.108, 1195.320 1172.451, 1195.613 1170.301 C 1195.747 1169.310, 1198.477 1166.131, 1201.679 1163.236 C 1204.880 1160.341, 1207.384 1157.376, 1207.243 1156.648 C 1207.102 1155.919, 1208.002 1154.462, 1209.243 1153.411 L 1211.500 1151.500 1209.500 1154 L 1207.500 1156.500 1209.683 1154.656 C 1210.883 1153.642, 1211.650 1152.251, 1211.387 1151.566 C 1211.124 1150.881, 1211.717 1149.686, 1212.704 1148.910 C 1214.380 1147.594, 1214.400 1147.633, 1213 1149.500 C 1211.621 1151.338, 1211.637 1151.393, 1213.191 1150.177 C 1214.120 1149.449, 1214.662 1148.284, 1214.395 1147.587 C 1214.128 1146.890, 1214.717 1145.686, 1215.704 1144.910 C 1217.380 1143.594, 1217.400 1143.633, 1216 1145.500 C 1214.621 1147.338, 1214.637 1147.393, 1216.191 1146.177 C 1217.120 1145.449, 1217.662 1144.284, 1217.395 1143.587 C 1217.128 1142.890, 1217.717 1141.686, 1218.704 1140.910 C 1220.342 1139.624, 1220.379 1139.654, 1219.128 1141.250 C 1218.373 1142.212, 1218.005 1143, 1218.309 1143 C 1218.614 1143, 1219.889 1141.537, 1221.143 1139.750 C 1222.980 1137.131, 1223.056 1136.791, 1221.536 1138 C 1219.699 1139.462, 1219.696 1139.430, 1221.440 1136.750 C 1223.132 1134.151, 1224.925 1132.695, 1223.405 1135.155 C 1222.972 1135.854, 1223.129 1136.038, 1223.802 1135.622 C 1224.413 1135.245, 1224.677 1134.321, 1224.388 1133.569 C 1224.100 1132.817, 1224.414 1131.862, 1225.086 1131.447 C 1225.920 1130.932, 1226.051 1131.108, 1225.500 1132 C 1224.976 1132.848, 1225.082 1133.067, 1225.802 1132.622 C 1226.413 1132.245, 1226.715 1131.388, 1226.474 1130.718 C 1226.233 1130.048, 1226.967 1128.375, 1228.105 1127 C 1229.242 1125.625, 1229.883 1125.063, 1229.528 1125.750 C 1229.173 1126.438, 1229.118 1127, 1229.406 1127 C 1229.694 1127, 1230.440 1126.046, 1231.065 1124.879 C 1231.936 1123.251, 1231.921 1122.931, 1231 1123.500 C 1230.079 1124.069, 1230.064 1123.749, 1230.935 1122.121 C 1231.560 1120.954, 1232.306 1120, 1232.594 1120 C 1232.882 1120, 1232.797 1120.520, 1232.405 1121.155 C 1231.972 1121.854, 1232.129 1122.038, 1232.802 1121.622 C 1233.413 1121.245, 1233.697 1120.375, 1233.434 1119.689 C 1233.171 1119.004, 1233.666 1117.556, 1234.533 1116.471 C 1236.039 1114.589, 1236.060 1114.613, 1235 1117 C 1233.961 1119.338, 1233.988 1119.377, 1235.413 1117.603 C 1236.251 1116.559, 1236.707 1115.335, 1236.427 1114.882 C 1236.147 1114.429, 1236.623 1112.696, 1237.485 1111.029 C 1239.283 1107.552, 1240.627 1106.851, 1238.980 1110.250 C 1237.963 1112.349, 1237.989 1112.376, 1239.376 1110.653 C 1240.194 1109.637, 1240.592 1108.101, 1240.261 1107.239 C 1239.867 1106.212, 1240.059 1105.919, 1240.819 1106.388 C 1241.599 1106.870, 1241.762 1106.544, 1241.319 1105.388 C 1240.836 1104.132, 1241.015 1103.891, 1241.985 1104.490 C 1242.840 1105.019, 1243.069 1104.921, 1242.633 1104.215 C 1241.811 1102.886, 1249.051 1087.914, 1250.179 1088.611 C 1250.618 1088.882, 1250.681 1088.332, 1250.319 1087.388 C 1249.875 1086.231, 1250.038 1085.905, 1250.819 1086.388 C 1251.599 1086.870, 1251.762 1086.544, 1251.319 1085.388 C 1250.836 1084.132, 1251.015 1083.891, 1251.985 1084.490 C 1252.889 1085.050, 1253.071 1084.924, 1252.558 1084.094 C 1251.562 1082.482, 1253.941 1076.846, 1255.271 1077.667 C 1255.875 1078.041, 1256.009 1077.823, 1255.590 1077.146 C 1254.579 1075.510, 1255.916 1071.830, 1257.227 1072.640 C 1257.874 1073.040, 1258.020 1072.842, 1257.590 1072.146 C 1256.651 1070.627, 1257.872 1066.803, 1259.061 1067.537 C 1259.565 1067.849, 1259.755 1067.518, 1259.484 1066.802 C 1258.892 1065.240, 1265.519 1046.278, 1266.199 1047.588 C 1266.459 1048.089, 1266.498 1047.840, 1266.284 1047.032 C 1265.608 1044.476, 1269.212 1032.746, 1270.227 1034.202 C 1270.842 1035.086, 1270.947 1034.839, 1270.555 1033.430 C 1270.239 1032.291, 1271.086 1026.441, 1272.438 1020.430 C 1275.191 1008.188, 1278.986 983.485, 1278.995 977.750 C 1278.998 975.688, 1279.450 974, 1280 974 C 1280.665 974, 1280.995 861.594, 1280.985 638.750 C 1280.976 454.362, 1280.593 304.093, 1280.134 304.817 C 1279.625 305.620, 1279.033 302.887, 1278.618 297.817 C 1277.816 288.030, 1274.678 268.987, 1271.913 257.127 C 1270.835 252.504, 1270.218 247.772, 1270.542 246.611 C 1271.029 244.865, 1270.932 244.759, 1269.981 246 C 1269.073 247.185, 1268.954 246.765, 1269.414 244 C 1269.735 242.075, 1269.642 241.049, 1269.208 241.720 C 1268.223 243.243, 1260.655 219.368, 1261.625 217.798 C 1262.003 217.186, 1261.858 216.970, 1261.300 217.314 C 1260.007 218.113, 1254.597 204.461, 1255.578 202.875 C 1256.008 202.178, 1255.882 201.955, 1255.271 202.333 C 1253.941 203.154, 1251.562 197.518, 1252.558 195.906 C 1253.071 195.076, 1252.889 194.950, 1251.985 195.510 C 1251.015 196.109, 1250.836 195.868, 1251.319 194.612 C 1251.681 193.668, 1251.620 193.117, 1251.184 193.386 C 1250.057 194.083, 1240.812 175.113, 1241.632 173.787 C 1242.069 173.079, 1241.840 172.981, 1240.985 173.510 C 1240.015 174.109, 1239.836 173.868, 1240.319 172.612 C 1240.762 171.456, 1240.599 171.130, 1239.819 171.612 C 1239.049 172.087, 1238.871 171.780, 1239.286 170.696 C 1239.631 169.798, 1239.413 168.755, 1238.802 168.378 C 1238.089 167.937, 1237.952 168.195, 1238.420 169.095 C 1238.820 169.868, 1238.430 169.613, 1237.552 168.529 C 1236.674 167.444, 1236.186 165.959, 1236.466 165.227 C 1236.782 164.405, 1236.534 164.170, 1235.819 164.612 C 1235.049 165.087, 1234.871 164.780, 1235.286 163.696 C 1235.631 162.798, 1235.413 161.755, 1234.802 161.378 C 1234.129 160.962, 1233.972 161.146, 1234.405 161.845 C 1234.797 162.480, 1234.903 163, 1234.641 163 C 1233.614 163, 1229.893 155.981, 1230.446 155.087 C 1230.769 154.565, 1230.506 153.813, 1229.862 153.415 C 1229.081 152.932, 1228.961 153.127, 1229.500 154 C 1230.051 154.892, 1229.920 155.068, 1229.086 154.553 C 1228.414 154.138, 1228.100 153.183, 1228.388 152.431 C 1228.677 151.679, 1228.413 150.755, 1227.802 150.378 C 1227.082 149.933, 1226.976 150.152, 1227.500 151 C 1228.051 151.892, 1227.920 152.068, 1227.086 151.553 C 1226.414 151.138, 1226.100 150.183, 1226.388 149.431 C 1226.677 148.679, 1226.413 147.755, 1225.802 147.378 C 1225.082 146.933, 1224.976 147.152, 1225.500 148 C 1226.051 148.892, 1225.920 149.068, 1225.086 148.553 C 1224.414 148.138, 1224.100 147.183, 1224.388 146.431 C 1224.677 145.679, 1224.413 144.755, 1223.802 144.378 C 1223.082 143.933, 1222.976 144.152, 1223.500 145 C 1224.051 145.892, 1223.920 146.068, 1223.086 145.553 C 1222.414 145.138, 1222.100 144.183, 1222.388 143.431 C 1222.677 142.679, 1222.413 141.755, 1221.802 141.378 C 1221.082 140.933, 1220.976 141.152, 1221.500 142 C 1222.051 142.892, 1221.920 143.068, 1221.086 142.553 C 1220.414 142.138, 1220.093 141.201, 1220.372 140.472 C 1220.652 139.743, 1220.120 138.551, 1219.191 137.823 C 1217.671 136.634, 1217.639 136.677, 1218.872 138.250 C 1219.627 139.213, 1219.995 140, 1219.691 140 C 1219.386 140, 1218.111 138.537, 1216.857 136.750 C 1214.852 133.891, 1214.814 133.668, 1216.539 134.896 C 1217.618 135.663, 1216.896 134.763, 1214.936 132.896 C 1212.976 131.028, 1210.501 128.375, 1209.436 127 C 1207.504 124.506, 1207.505 124.503, 1209.534 126 C 1210.653 126.825, 1209.565 125.667, 1207.116 123.427 C 1204.667 121.186, 1202.948 118.893, 1203.296 118.330 C 1203.644 117.767, 1202.482 116, 1200.714 114.403 L 1197.500 111.500 1200 114.546 C 1202.290 117.336, 1202.223 117.313, 1199.209 114.267 C 1197.399 112.437, 1196.138 110.586, 1196.406 110.152 C 1197.087 109.050, 1171.490 83.689, 1169.385 83.380 C 1168.440 83.242, 1166.279 81.650, 1164.583 79.844 L 1161.500 76.560 1164.500 79.030 L 1167.500 81.500 1165.144 78.822 C 1163.847 77.349, 1162.244 76.353, 1161.580 76.608 C 1160.917 76.862, 1159.502 76.050, 1158.437 74.803 C 1156.513 72.549, 1156.513 72.544, 1158.500 74.017 C 1160.349 75.388, 1160.397 75.369, 1159.137 73.761 C 1158.387 72.805, 1157.421 72.240, 1156.991 72.506 C 1156.560 72.772, 1155.353 72.204, 1154.307 71.245 C 1153.261 70.285, 1153.102 69.950, 1153.953 70.500 C 1155.299 71.370, 1155.322 71.274, 1154.137 69.761 C 1153.387 68.805, 1152.441 68.228, 1152.034 68.479 C 1151.627 68.730, 1150.441 68.242, 1149.397 67.394 C 1148.354 66.546, 1148.132 66.180, 1148.905 66.580 C 1149.836 67.064, 1150.065 66.915, 1149.585 66.138 C 1149.187 65.494, 1148.509 65.185, 1148.078 65.452 C 1147.647 65.718, 1146.441 65.242, 1145.397 64.394 C 1144.354 63.546, 1144.132 63.180, 1144.905 63.580 C 1145.805 64.048, 1146.063 63.911, 1145.622 63.198 C 1145.245 62.587, 1144.347 62.313, 1143.628 62.589 C 1142.909 62.865, 1141.686 62.309, 1140.910 61.354 C 1139.706 59.870, 1139.705 59.740, 1140.905 60.463 C 1141.838 61.025, 1142.079 60.936, 1141.622 60.198 C 1141.245 59.587, 1140.321 59.323, 1139.569 59.612 C 1138.817 59.900, 1137.862 59.586, 1137.447 58.914 C 1136.922 58.065, 1137.121 57.940, 1138.095 58.506 C 1138.914 58.981, 1139.157 58.946, 1138.679 58.423 C 1138.228 57.929, 1137.103 57.520, 1136.179 57.513 C 1135.256 57.506, 1134.595 56.990, 1134.711 56.368 C 1134.827 55.745, 1134.152 55.295, 1133.211 55.368 C 1132.270 55.440, 1131.595 54.990, 1131.711 54.368 C 1131.827 53.745, 1131.152 53.295, 1130.211 53.368 C 1129.270 53.440, 1128.595 52.990, 1128.711 52.368 C 1128.827 51.745, 1128.152 51.295, 1127.211 51.368 C 1126.270 51.440, 1125.607 50.954, 1125.738 50.286 C 1125.869 49.618, 1125.352 49.311, 1124.589 49.604 C 1123.826 49.897, 1122.862 49.586, 1122.447 48.914 C 1121.932 48.080, 1122.108 47.949, 1123 48.500 C 1123.848 49.024, 1124.067 48.918, 1123.622 48.198 C 1123.245 47.587, 1122.375 47.303, 1121.689 47.566 C 1121.004 47.829, 1119.556 47.326, 1118.471 46.448 C 1117.387 45.570, 1117.132 45.180, 1117.905 45.580 C 1118.805 46.048, 1119.063 45.911, 1118.622 45.198 C 1118.245 44.587, 1117.202 44.369, 1116.304 44.714 C 1115.220 45.129, 1114.913 44.951, 1115.388 44.181 C 1115.870 43.401, 1115.544 43.238, 1114.388 43.681 C 1113.308 44.096, 1112.914 43.948, 1113.325 43.283 C 1113.697 42.682, 1113.228 42.285, 1112.239 42.363 C 1111.283 42.438, 1110.607 41.954, 1110.738 41.286 C 1110.885 40.537, 1110.343 40.315, 1109.324 40.706 C 1108.223 41.128, 1107.911 40.953, 1108.388 40.181 C 1108.870 39.401, 1108.544 39.238, 1107.388 39.681 C 1106.231 40.125, 1105.905 39.962, 1106.388 39.181 C 1106.870 38.401, 1106.544 38.238, 1105.388 38.681 C 1104.132 39.164, 1103.891 38.985, 1104.490 38.015 C 1105.019 37.160, 1104.921 36.931, 1104.214 37.368 C 1102.887 38.188, 1085.916 29.945, 1086.612 28.818 C 1086.883 28.381, 1086.332 28.319, 1085.388 28.681 C 1084.231 29.125, 1083.905 28.962, 1084.388 28.181 C 1084.870 27.401, 1084.544 27.238, 1083.388 27.681 C 1082.132 28.164, 1081.891 27.985, 1082.490 27.015 C 1083.037 26.131, 1082.923 25.930, 1082.146 26.410 C 1080.627 27.349, 1076.803 26.128, 1077.537 24.939 C 1077.850 24.434, 1077.334 24.318, 1076.388 24.681 C 1075.132 25.164, 1074.891 24.985, 1075.490 24.015 C 1076.037 23.131, 1075.923 22.930, 1075.146 23.410 C 1073.510 24.421, 1069.830 23.084, 1070.640 21.773 C 1071.043 21.122, 1070.841 20.980, 1070.135 21.417 C 1068.475 22.443, 1061.827 20.089, 1062.645 18.765 C 1063.037 18.131, 1062.839 17.981, 1062.164 18.399 C 1061.534 18.788, 1056.177 17.542, 1050.259 15.631 C 1029.146 8.811, 1007.375 4.132, 984.506 1.497 C 973.196 0.194, 928.355 0.017, 638.506 0.133 C 455.353 0.206, 301.967 0.639, 297.649 1.095 M 318 110.647 C 303.546 112.066, 294.051 113.450, 285 115.456 C 270.747 118.616, 259.885 122.006, 260.553 123.086 C 260.856 123.576, 260.461 123.730, 259.675 123.429 C 257.583 122.626, 241.831 128.918, 242.643 130.232 C 243.019 130.839, 242.845 131.022, 242.245 130.651 C 240.846 129.787, 237.855 130.957, 238.558 132.093 C 238.858 132.579, 238.446 132.725, 237.642 132.416 C 235.783 131.703, 229.740 134.770, 230.519 136.031 C 230.852 136.570, 230.365 136.694, 229.388 136.319 C 228.132 135.836, 227.891 136.015, 228.490 136.985 C 229.026 137.851, 228.922 138.070, 228.189 137.617 C 226.595 136.632, 218.766 140.812, 219.619 142.193 C 220.034 142.863, 219.856 143.029, 219.175 142.608 C 217.797 141.756, 213.735 143.763, 214.461 144.937 C 214.746 145.398, 214.196 145.712, 213.239 145.637 C 212.283 145.562, 211.607 146.046, 211.738 146.714 C 211.869 147.382, 211.352 147.689, 210.589 147.396 C 209.826 147.103, 208.862 147.414, 208.447 148.086 C 207.922 148.935, 208.121 149.060, 209.095 148.494 C 209.914 148.019, 210.157 148.054, 209.679 148.577 C 209.228 149.071, 208.103 149.480, 207.179 149.487 C 206.256 149.494, 205.595 150.010, 205.711 150.632 C 205.827 151.255, 205.163 151.705, 204.235 151.632 C 203.307 151.560, 202.537 152.174, 202.524 152.999 C 202.511 153.823, 201.601 154.498, 200.503 154.499 C 199.404 154.499, 198.494 155.175, 198.480 156 C 198.466 156.825, 197.750 157.384, 196.889 157.243 C 196.027 157.102, 194.462 157.994, 193.411 159.226 C 191.518 161.445, 191.519 161.452, 193.500 159.983 C 195.349 158.612, 195.397 158.631, 194.137 160.239 C 193.387 161.195, 192.396 161.745, 191.935 161.460 C 191.474 161.175, 189.816 162.192, 188.250 163.721 C 185.927 165.989, 185.872 166.132, 187.952 164.500 L 190.500 162.500 188.105 165.219 C 186.787 166.715, 185.330 167.704, 184.867 167.418 C 184.403 167.131, 181.721 169.052, 178.905 171.686 C 172.707 177.483, 160.368 191.525, 164.569 188 C 166.208 186.625, 165.024 187.975, 161.938 191 C 155.392 197.417, 141.421 216.704, 144.850 214.591 C 145.944 213.916, 145.985 214.160, 145.065 215.879 C 143.876 218.101, 142.415 218.921, 143.515 216.750 C 143.863 216.063, 143.405 216.400, 142.496 217.500 C 139.675 220.914, 136.891 227.014, 137.617 228.189 C 138.070 228.922, 137.851 229.026, 136.985 228.490 C 136.015 227.891, 135.836 228.132, 136.319 229.388 C 136.694 230.365, 136.570 230.852, 136.031 230.519 C 134.770 229.740, 131.703 235.783, 132.416 237.642 C 132.725 238.446, 132.583 238.861, 132.102 238.563 C 130.019 237.276, 118.892 268.447, 115.170 286 C 110.315 308.894, 110.500 294.813, 110.500 640.500 C 110.500 903.464, 110.751 967.409, 111.816 975.500 C 113.715 989.930, 117.573 1006.543, 121.999 1019.348 C 127.121 1034.168, 127.078 1034.070, 128.093 1033.442 C 128.579 1033.142, 128.728 1033.544, 128.425 1034.336 C 127.908 1035.681, 139.391 1060, 140.543 1060 C 140.833 1060, 140.589 1059.100, 140 1058 C 139.411 1056.900, 139.159 1056, 139.439 1056 C 139.719 1056, 140.672 1057.400, 141.557 1059.110 C 142.499 1060.932, 142.676 1061.918, 141.983 1061.489 C 141.082 1060.932, 141.070 1061.263, 141.935 1062.879 C 142.560 1064.046, 143.306 1065, 143.594 1065 C 143.882 1065, 143.840 1064.550, 143.500 1064 C 143.160 1063.450, 143.118 1063, 143.406 1063 C 143.694 1063, 144.440 1063.954, 145.065 1065.121 C 145.952 1066.778, 145.928 1067.073, 144.956 1066.473 C 142.677 1065.064, 147.442 1072.305, 151.500 1076.417 C 153.700 1078.646, 154.600 1079.802, 153.500 1078.985 C 151.605 1077.578, 151.575 1077.605, 152.921 1079.500 C 153.703 1080.600, 155.973 1083.075, 157.965 1085 C 159.958 1086.925, 160.683 1087.825, 159.577 1087 C 156.212 1084.490, 165.961 1095.951, 175.185 1105.349 C 179.962 1110.216, 184.284 1113.943, 184.790 1113.630 C 185.295 1113.317, 186.787 1114.285, 188.105 1115.781 L 190.500 1118.500 187.750 1116.076 C 186.237 1114.742, 185 1113.930, 185 1114.271 C 185 1115.434, 196.184 1124.004, 197.024 1123.485 C 197.485 1123.200, 198.187 1123.494, 198.585 1124.138 C 199.080 1124.939, 198.865 1125.041, 197.905 1124.463 C 196.705 1123.740, 196.706 1123.870, 197.910 1125.354 C 198.686 1126.309, 199.909 1126.865, 200.628 1126.589 C 201.347 1126.313, 202.245 1126.587, 202.622 1127.198 C 203.063 1127.911, 202.805 1128.048, 201.905 1127.580 C 201.132 1127.180, 201.354 1127.546, 202.397 1128.394 C 203.441 1129.242, 204.689 1129.692, 205.172 1129.394 C 205.655 1129.095, 205.926 1129.447, 205.775 1130.176 C 205.624 1130.904, 206.270 1131.440, 207.211 1131.368 C 208.152 1131.295, 208.827 1131.745, 208.711 1132.368 C 208.595 1132.990, 209.270 1133.440, 210.211 1133.368 C 211.152 1133.295, 211.827 1133.745, 211.711 1134.368 C 211.595 1134.990, 212.283 1135.438, 213.239 1135.363 C 214.228 1135.285, 214.697 1135.682, 214.325 1136.283 C 213.921 1136.937, 214.293 1137.101, 215.304 1136.714 C 216.202 1136.369, 217.245 1136.587, 217.622 1137.198 C 218.063 1137.911, 217.805 1138.048, 216.905 1137.580 C 216.132 1137.180, 216.387 1137.570, 217.471 1138.448 C 218.556 1139.326, 220.013 1139.825, 220.709 1139.558 C 221.406 1139.291, 221.869 1139.618, 221.738 1140.286 C 221.607 1140.954, 222.283 1141.438, 223.239 1141.363 C 224.228 1141.285, 224.697 1141.682, 224.325 1142.283 C 223.914 1142.948, 224.308 1143.096, 225.388 1142.681 C 226.332 1142.319, 226.882 1142.382, 226.611 1142.821 C 225.914 1143.949, 240.886 1151.189, 242.215 1150.367 C 242.845 1149.978, 243.025 1150.150, 242.640 1150.773 C 241.830 1152.084, 245.510 1153.421, 247.146 1152.410 C 247.842 1151.980, 248.040 1152.126, 247.640 1152.773 C 246.830 1154.084, 250.510 1155.421, 252.146 1154.410 C 252.837 1153.983, 253.041 1154.125, 252.648 1154.761 C 251.720 1156.262, 270.265 1162.344, 273.227 1161.509 C 274.822 1161.060, 275.091 1161.152, 274.130 1161.817 C 272.499 1162.947, 284.571 1165.917, 302.045 1168.685 C 312.939 1170.411, 329.512 1170.500, 640.500 1170.500 C 951.488 1170.500, 968.061 1170.411, 978.955 1168.685 C 996.429 1165.917, 1008.501 1162.947, 1006.870 1161.817 C 1005.909 1161.152, 1006.178 1161.060, 1007.773 1161.509 C 1010.735 1162.344, 1029.280 1156.262, 1028.352 1154.761 C 1027.959 1154.125, 1028.163 1153.983, 1028.854 1154.410 C 1030.490 1155.421, 1034.170 1154.084, 1033.360 1152.773 C 1032.950 1152.109, 1033.160 1151.981, 1033.906 1152.442 C 1035.518 1153.438, 1041.154 1151.059, 1040.333 1149.729 C 1039.970 1149.142, 1040.173 1148.989, 1040.802 1149.377 C 1042.259 1150.278, 1060.259 1141.228, 1059.488 1139.981 C 1059.147 1139.428, 1059.622 1139.302, 1060.612 1139.681 C 1061.692 1140.096, 1062.086 1139.948, 1061.675 1139.283 C 1061.303 1138.682, 1061.772 1138.285, 1062.761 1138.363 C 1063.717 1138.438, 1064.393 1137.954, 1064.262 1137.286 C 1064.131 1136.618, 1064.648 1136.311, 1065.411 1136.604 C 1066.174 1136.897, 1067.138 1136.586, 1067.553 1135.914 C 1068.068 1135.080, 1067.892 1134.949, 1067 1135.500 C 1066.152 1136.024, 1065.933 1135.918, 1066.378 1135.198 C 1066.755 1134.587, 1067.798 1134.369, 1068.696 1134.714 C 1069.707 1135.101, 1070.079 1134.937, 1069.675 1134.283 C 1069.303 1133.682, 1069.772 1133.285, 1070.761 1133.363 C 1071.723 1133.439, 1072.377 1132.908, 1072.225 1132.176 C 1072.074 1131.447, 1072.345 1131.095, 1072.828 1131.394 C 1073.311 1131.692, 1074.559 1131.242, 1075.603 1130.394 C 1076.646 1129.546, 1076.868 1129.180, 1076.095 1129.580 C 1075.164 1130.064, 1074.935 1129.915, 1075.415 1129.138 C 1075.813 1128.494, 1076.557 1128.226, 1077.069 1128.542 C 1077.970 1129.099, 1090 1120.489, 1090 1119.287 C 1090 1118.958, 1088.987 1119.547, 1087.750 1120.595 L 1085.500 1122.500 1087.344 1120.317 C 1088.358 1119.117, 1089.725 1118.341, 1090.382 1118.593 C 1091.039 1118.845, 1092.909 1117.579, 1094.538 1115.779 L 1097.500 1112.507 1094.500 1115.004 L 1091.500 1117.500 1093.895 1114.781 C 1095.213 1113.285, 1096.717 1112.325, 1097.238 1112.647 C 1098.369 1113.346, 1114.510 1096.829, 1121.468 1087.853 C 1124.176 1084.359, 1125.493 1082.175, 1124.395 1083 C 1123.296 1083.825, 1123.795 1083.150, 1125.504 1081.500 C 1127.213 1079.850, 1129.261 1077.600, 1130.056 1076.500 C 1131.422 1074.607, 1131.393 1074.578, 1129.500 1075.946 C 1128.400 1076.741, 1129.188 1075.780, 1131.250 1073.811 C 1134.823 1070.400, 1136.252 1068.108, 1133.900 1069.562 C 1133.116 1070.047, 1133.095 1069.705, 1133.827 1068.371 C 1135.244 1065.788, 1138.298 1062.154, 1137.500 1064 C 1137.143 1064.825, 1137.582 1064.600, 1138.474 1063.500 C 1141.612 1059.633, 1153.147 1035.825, 1152.588 1034.369 C 1152.277 1033.559, 1152.435 1033.151, 1152.939 1033.463 C 1154.128 1034.197, 1155.349 1030.373, 1154.410 1028.854 C 1153.976 1028.152, 1154.126 1027.960, 1154.788 1028.369 C 1157.042 1029.762, 1165.283 1000.474, 1168.681 979 C 1170.413 968.052, 1170.500 951.792, 1170.500 640.500 C 1170.500 329.512, 1170.411 312.939, 1168.685 302.045 C 1165.917 284.571, 1162.947 272.499, 1161.817 274.130 C 1161.152 275.091, 1161.060 274.822, 1161.509 273.227 C 1162.344 270.265, 1156.262 251.720, 1154.761 252.648 C 1154.125 253.041, 1153.983 252.837, 1154.410 252.146 C 1155.349 250.627, 1154.128 246.803, 1152.939 247.537 C 1152.435 247.849, 1152.272 247.456, 1152.575 246.664 C 1153.092 245.319, 1141.609 221, 1140.457 221 C 1140.167 221, 1140.411 221.900, 1141 223 C 1141.589 224.100, 1141.841 225, 1141.561 225 C 1141.281 225, 1140.328 223.600, 1139.443 221.890 C 1138.501 220.068, 1138.324 219.082, 1139.017 219.511 C 1139.918 220.068, 1139.930 219.737, 1139.065 218.121 C 1138.440 216.954, 1137.694 216, 1137.406 216 C 1137.118 216, 1137.160 216.450, 1137.500 217 C 1137.840 217.550, 1137.882 218, 1137.594 218 C 1137.306 218, 1136.560 217.046, 1135.935 215.879 C 1135.048 214.222, 1135.072 213.927, 1136.044 214.527 C 1138.323 215.936, 1133.558 208.695, 1129.500 204.583 C 1127.300 202.354, 1126.400 201.198, 1127.500 202.015 C 1129.395 203.422, 1129.425 203.395, 1128.079 201.500 C 1127.297 200.400, 1125.027 197.925, 1123.035 196 C 1121.042 194.075, 1120.317 193.175, 1121.423 194 C 1124.788 196.510, 1115.039 185.049, 1105.815 175.651 C 1101.038 170.784, 1096.716 167.057, 1096.210 167.370 C 1095.705 167.683, 1094.213 166.715, 1092.895 165.219 L 1090.500 162.500 1093.250 164.924 C 1094.763 166.258, 1096 167.070, 1096 166.729 C 1096 165.566, 1084.816 156.996, 1083.976 157.515 C 1083.515 157.800, 1082.813 157.506, 1082.415 156.862 C 1081.920 156.061, 1082.135 155.959, 1083.095 156.537 C 1084.295 157.260, 1084.294 157.130, 1083.090 155.646 C 1082.314 154.691, 1081.091 154.135, 1080.372 154.411 C 1079.653 154.687, 1078.755 154.413, 1078.378 153.802 C 1077.937 153.089, 1078.195 152.952, 1079.095 153.420 C 1079.868 153.820, 1079.646 153.454, 1078.603 152.606 C 1077.559 151.758, 1076.311 151.308, 1075.828 151.606 C 1075.345 151.905, 1075.074 151.553, 1075.225 150.824 C 1075.376 150.096, 1074.730 149.560, 1073.789 149.632 C 1072.848 149.705, 1072.173 149.255, 1072.289 148.632 C 1072.405 148.010, 1071.730 147.560, 1070.789 147.632 C 1069.848 147.705, 1069.173 147.255, 1069.289 146.632 C 1069.405 146.010, 1068.717 145.562, 1067.761 145.637 C 1066.772 145.715, 1066.303 145.318, 1066.675 144.717 C 1067.079 144.063, 1066.707 143.899, 1065.696 144.286 C 1064.798 144.631, 1063.755 144.413, 1063.378 143.802 C 1062.937 143.089, 1063.195 142.952, 1064.095 143.420 C 1064.868 143.820, 1064.613 143.430, 1063.529 142.552 C 1062.444 141.674, 1060.987 141.175, 1060.291 141.442 C 1059.594 141.709, 1059.131 141.382, 1059.262 140.714 C 1059.393 140.046, 1058.717 139.562, 1057.761 139.637 C 1056.772 139.715, 1056.303 139.318, 1056.675 138.717 C 1057.086 138.052, 1056.692 137.904, 1055.612 138.319 C 1054.668 138.681, 1054.118 138.618, 1054.389 138.179 C 1055.086 137.051, 1040.114 129.811, 1038.785 130.633 C 1038.155 131.022, 1037.975 130.850, 1038.360 130.227 C 1039.170 128.916, 1035.490 127.579, 1033.854 128.590 C 1033.160 129.019, 1032.959 128.875, 1033.357 128.231 C 1034.334 126.651, 1015.060 119.821, 998.883 116.015 C 974.042 110.171, 999.765 110.577, 645.500 110.434 C 467.300 110.363, 319.925 110.458, 318 110.647 M 482.331 111.750 C 569.688 111.891, 712.338 111.891, 799.331 111.750 C 886.324 111.609, 814.850 111.494, 640.500 111.494 C 466.150 111.494, 394.974 111.609, 482.331 111.750 M 982.500 213.048 C 979.750 213.570, 976.375 213.759, 975 213.468 C 973.416 213.133, 972.971 213.255, 973.786 213.801 C 975.392 214.877, 967.520 217.439, 965.825 216.392 C 965.078 215.930, 964.970 216.143, 965.510 217.015 C 966.109 217.985, 965.868 218.164, 964.612 217.681 C 963.668 217.319, 963.142 217.421, 963.442 217.907 C 964.145 219.043, 961.154 220.213, 959.755 219.349 C 959.079 218.931, 958.990 219.174, 959.510 220.015 C 960.109 220.985, 959.868 221.164, 958.612 220.681 C 957.456 220.238, 957.130 220.401, 957.612 221.181 C 958.089 221.953, 957.777 222.128, 956.676 221.706 C 955.657 221.315, 955.115 221.537, 955.262 222.286 C 955.393 222.954, 954.730 223.440, 953.789 223.368 C 952.848 223.295, 952.173 223.745, 952.289 224.368 C 952.405 224.990, 951.600 225.521, 950.500 225.547 C 949.400 225.572, 948.608 226.121, 948.740 226.767 C 948.872 227.412, 948.085 228.420, 946.990 229.005 C 945.896 229.591, 945 229.738, 945 229.332 C 945 228.926, 943.219 230.334, 941.041 232.460 C 938.864 234.586, 937.287 236.655, 937.536 237.058 C 937.785 237.462, 937.204 238.647, 936.245 239.693 C 935.285 240.739, 934.950 240.898, 935.500 240.047 C 936.362 238.714, 936.266 238.683, 934.809 239.823 C 933.880 240.551, 933.338 241.716, 933.605 242.413 C 933.872 243.110, 933.283 244.314, 932.296 245.090 C 930.624 246.403, 930.603 246.366, 932 244.558 C 932.881 243.417, 932.986 242.925, 932.255 243.364 C 931.571 243.775, 930.513 245.041, 929.906 246.176 C 929.183 247.526, 929.163 248.017, 929.848 247.594 C 930.424 247.238, 929.153 250.671, 927.023 255.223 C 921.539 266.946, 919.532 277.775, 920.492 290.463 C 920.910 295.983, 921.283 302.261, 921.322 304.413 C 921.360 306.566, 921.589 307.732, 921.831 307.006 C 922.073 306.280, 923.112 307.894, 924.140 310.593 C 925.168 313.292, 925.787 316.086, 925.516 316.802 C 925.215 317.598, 925.473 317.826, 926.181 317.388 C 926.962 316.905, 927.125 317.231, 926.681 318.388 C 926.238 319.544, 926.401 319.870, 927.181 319.388 C 927.962 318.905, 928.125 319.231, 927.681 320.388 C 927.238 321.544, 927.401 321.870, 928.181 321.388 C 928.951 320.913, 929.129 321.220, 928.714 322.304 C 928.369 323.202, 928.587 324.245, 929.198 324.622 C 929.918 325.067, 930.024 324.848, 929.500 324 C 928.949 323.108, 929.080 322.932, 929.914 323.447 C 930.586 323.862, 930.900 324.817, 930.612 325.569 C 930.323 326.321, 930.587 327.245, 931.198 327.622 C 931.871 328.038, 932.028 327.854, 931.595 327.155 C 930.075 324.695, 931.868 326.151, 933.560 328.750 C 935.312 331.443, 935.310 331.469, 933.425 330 C 932.366 329.175, 934.902 331.875, 939.061 336 C 944.585 341.480, 944.989 342.019, 940.561 338 L 934.500 332.500 940.422 338.703 C 943.679 342.114, 946.650 344.716, 947.025 344.485 C 947.399 344.253, 948.559 344.758, 949.603 345.606 C 950.646 346.454, 950.825 346.818, 950 346.414 C 949.133 345.989, 948.846 346.058, 949.321 346.577 C 949.772 347.071, 950.897 347.480, 951.821 347.487 C 952.744 347.494, 953.405 348.010, 953.289 348.632 C 953.173 349.255, 953.848 349.705, 954.789 349.632 C 955.730 349.560, 956.393 350.046, 956.262 350.714 C 956.115 351.463, 956.657 351.685, 957.676 351.294 C 958.777 350.872, 959.089 351.047, 958.612 351.819 C 958.130 352.599, 958.456 352.762, 959.612 352.319 C 960.769 351.875, 961.095 352.038, 960.612 352.819 C 960.130 353.599, 960.456 353.762, 961.612 353.319 C 962.769 352.875, 963.095 353.038, 962.612 353.819 C 962.130 354.599, 962.456 354.762, 963.612 354.319 C 964.868 353.836, 965.109 354.015, 964.510 354.985 C 963.973 355.852, 964.078 356.070, 964.813 355.616 C 965.430 355.234, 969.212 355.952, 973.217 357.211 C 979.302 359.124, 982.720 359.500, 994 359.500 C 1005.280 359.500, 1008.698 359.124, 1014.783 357.211 C 1018.788 355.952, 1022.570 355.234, 1023.187 355.616 C 1023.922 356.070, 1024.027 355.852, 1023.490 354.985 C 1022.891 354.015, 1023.132 353.836, 1024.388 354.319 C 1025.544 354.762, 1025.870 354.599, 1025.388 353.819 C 1024.905 353.038, 1025.231 352.875, 1026.388 353.319 C 1027.544 353.762, 1027.870 353.599, 1027.388 352.819 C 1026.905 352.038, 1027.231 351.875, 1028.388 352.319 C 1029.544 352.762, 1029.870 352.599, 1029.388 351.819 C 1028.911 351.047, 1029.223 350.872, 1030.324 351.294 C 1031.343 351.685, 1031.885 351.463, 1031.738 350.714 C 1031.607 350.046, 1032.270 349.560, 1033.211 349.632 C 1034.152 349.705, 1034.827 349.255, 1034.711 348.632 C 1034.595 348.010, 1035.256 347.494, 1036.179 347.487 C 1037.103 347.480, 1038.228 347.071, 1038.679 346.577 C 1039.154 346.058, 1038.867 345.989, 1038 346.414 C 1037.175 346.818, 1037.354 346.454, 1038.397 345.606 C 1039.441 344.758, 1040.603 344.254, 1040.979 344.487 C 1041.981 345.106, 1051.332 335.344, 1051.621 333.378 C 1051.756 332.458, 1052.659 330.984, 1053.628 330.103 C 1055.283 328.597, 1055.303 328.622, 1053.945 330.500 C 1052.623 332.330, 1052.644 332.387, 1054.191 331.177 C 1055.120 330.449, 1055.652 329.257, 1055.372 328.528 C 1055.093 327.799, 1055.414 326.862, 1056.086 326.447 C 1056.920 325.932, 1057.051 326.108, 1056.500 327 C 1055.961 327.873, 1056.081 328.068, 1056.862 327.585 C 1057.506 327.187, 1057.779 326.452, 1057.470 325.952 C 1056.675 324.665, 1058.904 320.823, 1060.039 321.524 C 1060.569 321.852, 1060.691 321.357, 1060.319 320.388 C 1059.875 319.231, 1060.038 318.905, 1060.819 319.388 C 1061.599 319.870, 1061.762 319.544, 1061.319 318.388 C 1060.836 317.132, 1061.015 316.891, 1061.985 317.490 C 1062.869 318.037, 1063.070 317.923, 1062.590 317.146 C 1061.761 315.803, 1062.807 311.763, 1063.822 312.390 C 1064.195 312.620, 1064.537 311.839, 1064.583 310.655 C 1064.628 309.470, 1065.477 304.684, 1066.470 300.020 C 1068.695 289.565, 1068.104 275.732, 1065.005 265.730 C 1063.851 262.006, 1063.223 258.449, 1063.608 257.825 C 1064.003 257.185, 1063.867 256.964, 1063.294 257.318 C 1062.736 257.663, 1061.444 256.093, 1060.423 253.830 C 1059.402 251.566, 1056.807 247.191, 1054.655 244.107 C 1051.812 240.031, 1051.393 239.033, 1053.122 240.450 C 1054.430 241.523, 1052.770 239.723, 1049.433 236.450 C 1046.096 233.178, 1045.196 232.075, 1047.433 234 L 1051.500 237.500 1047.587 233.291 C 1045.436 230.977, 1043.345 229.287, 1042.942 229.536 C 1042.538 229.785, 1041.353 229.204, 1040.307 228.245 C 1039.261 227.285, 1039.102 226.928, 1039.953 227.452 C 1041.247 228.248, 1041.289 228.168, 1040.212 226.963 C 1039.503 226.171, 1038.153 225.518, 1037.212 225.512 C 1036.270 225.505, 1035.595 224.990, 1035.711 224.368 C 1035.827 223.745, 1035.152 223.295, 1034.211 223.368 C 1033.270 223.440, 1032.607 222.954, 1032.738 222.286 C 1032.885 221.537, 1032.343 221.315, 1031.324 221.706 C 1030.223 222.128, 1029.911 221.953, 1030.388 221.181 C 1030.870 220.401, 1030.544 220.238, 1029.388 220.681 C 1028.132 221.164, 1027.891 220.985, 1028.490 220.015 C 1029.010 219.174, 1028.921 218.931, 1028.245 219.349 C 1026.846 220.213, 1023.855 219.043, 1024.558 217.907 C 1024.858 217.421, 1024.332 217.319, 1023.388 217.681 C 1022.132 218.164, 1021.891 217.985, 1022.490 217.015 C 1023.030 216.143, 1022.922 215.930, 1022.175 216.392 C 1021.551 216.777, 1019.216 216.546, 1016.985 215.877 C 1014.754 215.209, 1013.387 214.379, 1013.947 214.033 C 1014.507 213.687, 1013.285 213.382, 1011.232 213.355 C 1009.180 213.328, 1003 213.034, 997.500 212.702 C 992 212.370, 985.250 212.526, 982.500 213.048 M 0.494 640 C 0.494 824.525, 0.609 900.013, 0.750 807.750 C 0.891 715.488, 0.891 564.513, 0.750 472.250 C 0.609 379.988, 0.494 455.475, 0.494 640 M 622 322.086 C 596.119 323.519, 568.665 328.627, 543.780 336.640 C 536.177 339.088, 529.447 340.776, 528.824 340.391 C 528.180 339.993, 527.965 340.134, 528.325 340.717 C 529.128 342.015, 520.466 345.406, 518.869 344.419 C 518.159 343.980, 517.957 344.121, 518.360 344.773 C 519.170 346.084, 515.490 347.421, 513.854 346.410 C 513.077 345.930, 512.963 346.131, 513.510 347.015 C 514.109 347.985, 513.868 348.164, 512.612 347.681 C 511.668 347.319, 511.139 347.416, 511.435 347.895 C 512.184 349.107, 506.398 351.364, 504.906 350.442 C 504.076 349.929, 503.950 350.111, 504.510 351.015 C 505.109 351.985, 504.868 352.164, 503.612 351.681 C 502.456 351.238, 502.130 351.401, 502.612 352.181 C 503.095 352.962, 502.769 353.125, 501.612 352.681 C 500.456 352.238, 500.130 352.401, 500.612 353.181 C 501.095 353.962, 500.769 354.125, 499.612 353.681 C 498.456 353.238, 498.130 353.401, 498.612 354.181 C 499.095 354.962, 498.769 355.125, 497.612 354.681 C 496.456 354.238, 496.130 354.401, 496.612 355.181 C 497.095 355.962, 496.769 356.125, 495.612 355.681 C 494.456 355.238, 494.130 355.401, 494.612 356.181 C 495.095 356.962, 494.769 357.125, 493.612 356.681 C 492.456 356.238, 492.130 356.401, 492.612 357.181 C 493.095 357.962, 492.769 358.125, 491.612 357.681 C 490.643 357.309, 490.148 357.431, 490.476 357.961 C 491.247 359.209, 487.272 361.286, 485.825 360.392 C 485.078 359.930, 484.970 360.143, 485.510 361.015 C 486.109 361.985, 485.868 362.164, 484.612 361.681 C 483.456 361.238, 483.130 361.401, 483.612 362.181 C 484.089 362.953, 483.777 363.128, 482.676 362.706 C 481.657 362.315, 481.115 362.537, 481.262 363.286 C 481.393 363.954, 480.717 364.438, 479.761 364.363 C 478.772 364.285, 478.303 364.682, 478.675 365.283 C 479.081 365.940, 478.703 366.100, 477.676 365.706 C 476.657 365.315, 476.115 365.537, 476.262 366.286 C 476.393 366.954, 475.717 367.438, 474.761 367.363 C 473.772 367.285, 473.303 367.682, 473.675 368.283 C 474.079 368.937, 473.707 369.101, 472.696 368.714 C 471.798 368.369, 470.755 368.587, 470.378 369.198 C 469.933 369.918, 470.152 370.024, 471 369.500 C 471.892 368.949, 472.068 369.080, 471.553 369.914 C 471.138 370.586, 470.174 370.897, 469.411 370.604 C 468.648 370.311, 468.131 370.618, 468.262 371.286 C 468.393 371.954, 467.730 372.440, 466.789 372.368 C 465.848 372.295, 465.173 372.745, 465.289 373.368 C 465.405 373.990, 464.730 374.440, 463.789 374.368 C 462.848 374.295, 462.173 374.745, 462.289 375.368 C 462.405 375.990, 461.744 376.506, 460.821 376.513 C 459.897 376.520, 458.772 376.929, 458.321 377.423 C 457.843 377.946, 458.086 377.981, 458.905 377.506 C 459.879 376.940, 460.078 377.065, 459.553 377.914 C 459.138 378.586, 458.183 378.900, 457.431 378.612 C 456.679 378.323, 455.755 378.587, 455.378 379.198 C 454.921 379.936, 455.162 380.025, 456.095 379.463 C 457.295 378.740, 457.294 378.870, 456.090 380.354 C 455.314 381.309, 454.091 381.865, 453.372 381.589 C 452.653 381.313, 451.755 381.587, 451.378 382.198 C 450.937 382.911, 451.195 383.048, 452.095 382.580 C 452.868 382.180, 452.646 382.546, 451.603 383.394 C 450.559 384.242, 449.353 384.718, 448.922 384.452 C 448.491 384.185, 447.813 384.494, 447.415 385.138 C 446.935 385.915, 447.164 386.064, 448.095 385.580 C 448.868 385.180, 448.646 385.546, 447.603 386.394 C 446.559 387.242, 445.353 387.718, 444.922 387.452 C 444.491 387.185, 443.813 387.494, 443.415 388.138 C 442.920 388.939, 443.135 389.041, 444.095 388.463 C 445.295 387.740, 445.294 387.870, 444.090 389.354 C 443.314 390.309, 442.119 390.876, 441.434 390.613 C 440.749 390.350, 439.358 391.117, 438.344 392.317 C 436.525 394.471, 436.528 394.480, 438.549 393 C 439.910 392.004, 439.801 392.261, 438.227 393.764 C 436.922 395.010, 435.503 395.811, 435.073 395.545 C 434.643 395.279, 433.213 396.285, 431.895 397.781 L 429.500 400.500 432.058 398.500 C 433.465 397.400, 433.066 397.951, 431.171 399.724 C 429.276 401.498, 427.420 402.759, 427.045 402.528 C 426.670 402.296, 420.769 407.820, 413.932 414.803 L 401.500 427.500 414.063 415.500 C 423.818 406.183, 423.048 407.077, 410.618 419.500 C 401.814 428.300, 395.963 434.375, 397.616 433 C 399.269 431.625, 398.558 432.525, 396.037 435 C 393.516 437.475, 392.363 438.828, 393.476 438.007 C 396.211 435.990, 391.982 441.182, 387.052 445.896 C 385.098 447.763, 384.193 448.888, 385.039 448.396 C 385.885 447.903, 385.418 448.625, 384 450 C 382.582 451.375, 382.097 452.050, 382.922 451.500 C 383.755 450.945, 383.409 451.945, 382.143 453.750 C 380.889 455.538, 379.614 457, 379.309 457 C 379.005 457, 379.373 456.212, 380.128 455.250 C 381.361 453.677, 381.329 453.634, 379.809 454.823 C 378.880 455.551, 378.348 456.743, 378.628 457.472 C 378.907 458.201, 378.586 459.138, 377.914 459.553 C 377.080 460.068, 376.949 459.892, 377.500 459 C 378.024 458.152, 377.918 457.933, 377.198 458.378 C 376.587 458.755, 376.323 459.679, 376.612 460.431 C 376.900 461.183, 376.586 462.138, 375.914 462.553 C 375.080 463.068, 374.949 462.892, 375.500 462 C 376.024 461.152, 375.918 460.933, 375.198 461.378 C 374.587 461.755, 374.323 462.679, 374.612 463.431 C 374.900 464.183, 374.586 465.138, 373.914 465.553 C 373.080 466.068, 372.949 465.892, 373.500 465 C 374.024 464.152, 373.918 463.933, 373.198 464.378 C 372.587 464.755, 372.285 465.612, 372.526 466.282 C 372.767 466.952, 372.033 468.625, 370.895 470 C 369.758 471.375, 369.117 471.938, 369.472 471.250 C 370.643 468.984, 369.264 469.948, 367.514 472.619 C 366.570 474.060, 365.677 476.341, 365.529 477.689 C 365.381 479.037, 364.685 480.671, 363.983 481.320 C 362.984 482.244, 362.881 482.195, 363.508 481.095 C 364.033 480.175, 363.926 479.928, 363.198 480.378 C 362.587 480.755, 362.369 481.798, 362.714 482.696 C 363.166 483.875, 362.972 484.101, 362.015 483.510 C 361.147 482.973, 360.930 483.078, 361.386 483.816 C 362.284 485.268, 359.215 491.251, 357.969 490.481 C 357.430 490.148, 357.306 490.635, 357.681 491.612 C 358.125 492.769, 357.962 493.095, 357.181 492.612 C 356.401 492.130, 356.238 492.456, 356.681 493.612 C 357.125 494.769, 356.962 495.095, 356.181 494.612 C 355.401 494.130, 355.238 494.456, 355.681 495.612 C 356.125 496.769, 355.962 497.095, 355.181 496.612 C 354.401 496.130, 354.238 496.456, 354.681 497.612 C 355.125 498.769, 354.962 499.095, 354.181 498.612 C 353.401 498.130, 353.238 498.456, 353.681 499.612 C 354.125 500.769, 353.962 501.095, 353.181 500.612 C 352.401 500.130, 352.238 500.456, 352.681 501.612 C 353.125 502.769, 352.962 503.095, 352.181 502.612 C 351.401 502.130, 351.238 502.456, 351.681 503.612 C 352.164 504.868, 351.985 505.109, 351.015 504.510 C 350.101 503.944, 349.929 504.075, 350.458 504.932 C 351.449 506.535, 348.043 514.145, 346.706 513.318 C 346.109 512.949, 346 513.191, 346.442 513.906 C 347.438 515.518, 345.059 521.154, 343.729 520.333 C 343.131 519.963, 342.990 520.176, 343.398 520.835 C 343.787 521.464, 342.043 527.904, 339.524 535.147 C 327.099 570.861, 321.762 602.753, 321.808 641 C 321.842 668.606, 324.433 690.899, 330.512 715.898 C 331.903 721.617, 332.777 727.242, 332.455 728.398 C 332.063 729.805, 332.166 730.075, 332.766 729.214 C 333.979 727.474, 336.327 735.304, 335.488 738.294 C 335.114 739.628, 335.204 740.023, 335.717 739.293 C 336.811 737.736, 342.482 753.411, 341.437 755.103 C 340.981 755.840, 341.112 756.049, 341.773 755.640 C 343.084 754.830, 344.421 758.510, 343.410 760.146 C 342.980 760.842, 343.126 761.040, 343.773 760.640 C 345.084 759.830, 346.421 763.510, 345.410 765.146 C 344.998 765.812, 345.124 766.041, 345.706 765.682 C 347.043 764.855, 350.449 772.465, 349.458 774.068 C 348.929 774.925, 349.101 775.056, 350.015 774.490 C 350.985 773.891, 351.164 774.132, 350.681 775.388 C 350.238 776.544, 350.401 776.870, 351.181 776.388 C 351.962 775.905, 352.125 776.231, 351.681 777.388 C 351.238 778.544, 351.401 778.870, 352.181 778.388 C 352.962 777.905, 353.125 778.231, 352.681 779.388 C 352.238 780.544, 352.401 780.870, 353.181 780.388 C 353.962 779.905, 354.125 780.231, 353.681 781.388 C 353.238 782.544, 353.401 782.870, 354.181 782.388 C 354.962 781.905, 355.125 782.231, 354.681 783.388 C 354.238 784.544, 354.401 784.870, 355.181 784.388 C 355.962 783.905, 356.125 784.231, 355.681 785.388 C 355.238 786.544, 355.401 786.870, 356.181 786.388 C 356.962 785.905, 357.125 786.231, 356.681 787.388 C 356.238 788.544, 356.401 788.870, 357.181 788.388 C 357.962 787.905, 358.125 788.231, 357.681 789.388 C 357.238 790.544, 357.401 790.870, 358.181 790.388 C 358.962 789.905, 359.125 790.231, 358.681 791.388 C 358.306 792.365, 358.430 792.852, 358.969 792.519 C 360.057 791.847, 363.340 797.641, 362.573 798.882 C 362.293 799.335, 362.749 800.559, 363.587 801.603 C 365.031 803.401, 365.053 803.383, 364.020 801.250 C 362.350 797.804, 363.729 798.576, 365.557 802.110 C 366.499 803.932, 366.676 804.918, 365.983 804.489 C 365.082 803.932, 365.070 804.263, 365.935 805.879 C 367.124 808.101, 368.585 808.921, 367.485 806.750 C 366.542 804.890, 369.979 809.196, 371.173 811.371 C 371.905 812.705, 371.884 813.047, 371.100 812.562 C 368.879 811.189, 370.090 813.283, 373.250 816.279 C 375.037 817.974, 375.825 819.005, 375 818.570 C 374.175 818.136, 374.810 818.880, 376.411 820.225 C 378.013 821.569, 379.018 823.162, 378.645 823.765 C 378.272 824.368, 378.494 825.187, 379.138 825.585 C 379.919 826.068, 380.039 825.873, 379.500 825 C 378.949 824.108, 379.080 823.932, 379.914 824.447 C 380.586 824.862, 380.907 825.799, 380.628 826.528 C 380.348 827.257, 380.880 828.449, 381.809 829.177 C 383.363 830.393, 383.379 830.338, 382 828.500 C 380.600 826.633, 380.620 826.594, 382.296 827.910 C 383.283 828.686, 383.872 829.890, 383.605 830.587 C 383.338 831.284, 383.880 832.449, 384.809 833.177 C 386.329 834.366, 386.361 834.323, 385.128 832.750 C 384.373 831.788, 383.982 831, 384.259 831 C 384.536 831, 386.024 832.688, 387.566 834.750 C 389.517 837.359, 389.768 838.044, 388.391 837 C 387.302 836.175, 388.232 837.153, 390.456 839.173 C 392.680 841.193, 394.508 843.474, 394.517 844.241 C 394.526 845.009, 402.401 853.477, 412.017 863.058 C 421.633 872.640, 427.250 878.459, 424.500 875.990 L 419.500 871.500 423.916 876.207 C 426.344 878.795, 428.685 880.695, 429.117 880.428 C 429.550 880.160, 431.187 881.192, 432.757 882.721 C 434.327 884.249, 434.686 884.825, 433.555 884 C 431.518 882.513, 431.516 882.519, 433.384 884.726 C 434.420 885.951, 435.610 886.741, 436.029 886.482 C 436.449 886.223, 437.647 886.796, 438.693 887.755 C 439.739 888.715, 439.898 889.050, 439.047 888.500 C 437.701 887.630, 437.678 887.726, 438.863 889.239 C 439.613 890.195, 440.579 890.760, 441.009 890.494 C 441.440 890.228, 442.647 890.796, 443.693 891.755 C 444.739 892.715, 444.898 893.072, 444.047 892.548 C 442.753 891.752, 442.711 891.832, 443.788 893.037 C 444.497 893.829, 445.846 894.482, 446.786 894.488 C 447.726 894.495, 448.506 895.175, 448.520 896 C 448.534 896.825, 449.262 897.382, 450.139 897.237 C 451.016 897.092, 452.356 897.741, 453.117 898.679 C 454.298 900.135, 454.295 900.260, 453.095 899.537 C 452.162 898.975, 451.921 899.064, 452.378 899.802 C 452.755 900.413, 453.679 900.677, 454.431 900.388 C 455.183 900.100, 456.138 900.414, 456.553 901.086 C 457.068 901.920, 456.892 902.051, 456 901.500 C 455.152 900.976, 454.933 901.082, 455.378 901.802 C 455.755 902.413, 456.653 902.687, 457.372 902.411 C 458.091 902.135, 459.314 902.691, 460.090 903.646 C 461.294 905.130, 461.295 905.260, 460.095 904.537 C 459.162 903.975, 458.921 904.064, 459.378 904.802 C 459.755 905.413, 460.679 905.677, 461.431 905.388 C 462.183 905.100, 463.138 905.414, 463.553 906.086 C 464.068 906.920, 463.892 907.051, 463 906.500 C 462.152 905.976, 461.933 906.082, 462.378 906.802 C 462.755 907.413, 463.679 907.677, 464.431 907.388 C 465.183 907.100, 466.138 907.414, 466.553 908.086 C 467.068 908.920, 466.892 909.051, 466 908.500 C 465.152 907.976, 464.933 908.082, 465.378 908.802 C 465.755 909.413, 466.798 909.631, 467.696 909.286 C 468.707 908.899, 469.079 909.063, 468.675 909.717 C 468.303 910.318, 468.772 910.715, 469.761 910.637 C 470.717 910.562, 471.393 911.046, 471.262 911.714 C 471.131 912.382, 471.648 912.689, 472.411 912.396 C 473.174 912.103, 474.138 912.414, 474.553 913.086 C 475.068 913.920, 474.892 914.051, 474 913.500 C 473.152 912.976, 472.933 913.082, 473.378 913.802 C 473.755 914.413, 474.798 914.631, 475.696 914.286 C 476.707 913.899, 477.079 914.063, 476.675 914.717 C 476.303 915.318, 476.772 915.715, 477.761 915.637 C 478.717 915.562, 479.393 916.046, 479.262 916.714 C 479.115 917.463, 479.657 917.685, 480.676 917.294 C 481.777 916.872, 482.089 917.047, 481.612 917.819 C 481.130 918.599, 481.456 918.762, 482.612 918.319 C 483.692 917.904, 484.086 918.052, 483.675 918.717 C 483.303 919.318, 483.772 919.715, 484.761 919.637 C 485.717 919.562, 486.393 920.046, 486.262 920.714 C 486.115 921.463, 486.657 921.685, 487.676 921.294 C 488.777 920.872, 489.089 921.047, 488.612 921.819 C 488.130 922.599, 488.456 922.762, 489.612 922.319 C 490.769 921.875, 491.095 922.038, 490.612 922.819 C 490.130 923.599, 490.456 923.762, 491.612 923.319 C 492.769 922.875, 493.095 923.038, 492.612 923.819 C 492.130 924.599, 492.456 924.762, 493.612 924.319 C 494.769 923.875, 495.095 924.038, 494.612 924.819 C 494.130 925.599, 494.456 925.762, 495.612 925.319 C 496.769 924.875, 497.095 925.038, 496.612 925.819 C 496.130 926.599, 496.456 926.762, 497.612 926.319 C 498.769 925.875, 499.095 926.038, 498.612 926.819 C 498.130 927.599, 498.456 927.762, 499.612 927.319 C 500.769 926.875, 501.095 927.038, 500.612 927.819 C 500.130 928.599, 500.456 928.762, 501.612 928.319 C 502.769 927.875, 503.095 928.038, 502.612 928.819 C 502.130 929.599, 502.456 929.762, 503.612 929.319 C 504.769 928.875, 505.095 929.038, 504.612 929.819 C 504.130 930.599, 504.456 930.762, 505.612 930.319 C 506.769 929.875, 507.095 930.038, 506.612 930.819 C 506.130 931.599, 506.456 931.762, 507.612 931.319 C 508.868 930.836, 509.109 931.015, 508.510 931.985 C 507.963 932.869, 508.077 933.070, 508.854 932.590 C 510.373 931.651, 514.197 932.872, 513.463 934.061 C 513.150 934.566, 513.666 934.682, 514.612 934.319 C 515.868 933.836, 516.109 934.015, 515.510 934.985 C 514.963 935.869, 515.077 936.070, 515.854 935.590 C 517.490 934.579, 521.170 935.916, 520.360 937.227 C 519.960 937.874, 520.158 938.020, 520.854 937.590 C 522.490 936.579, 526.170 937.916, 525.360 939.227 C 524.976 939.848, 525.154 940.023, 525.779 939.636 C 526.378 939.266, 532.860 940.951, 540.184 943.379 C 547.508 945.807, 555.022 948.115, 556.883 948.506 C 559.361 949.027, 559.896 949.456, 558.883 950.107 C 558.007 950.671, 558.783 950.784, 561 950.414 C 563.765 949.954, 564.185 950.073, 563 950.981 C 561.761 951.931, 561.871 952.027, 563.632 951.536 C 564.804 951.208, 571.368 952.075, 578.217 953.462 C 599.717 957.815, 615.529 959.297, 640.500 959.297 C 666.571 959.297, 681.939 957.761, 705.465 952.805 C 713.734 951.063, 721.975 949.641, 723.778 949.645 C 725.581 949.649, 726.550 949.340, 725.933 948.958 C 724.345 947.977, 729.681 946.782, 732.335 947.525 C 733.694 947.906, 734.041 947.809, 733.266 947.266 C 731.716 946.181, 748.467 940.553, 750.151 941.594 C 750.839 942.018, 751.039 941.873, 750.645 941.235 C 749.827 939.911, 756.475 937.557, 758.135 938.583 C 758.823 939.008, 759.043 938.879, 758.667 938.271 C 757.846 936.941, 763.482 934.562, 765.094 935.558 C 765.820 936.007, 766.051 935.891, 765.667 935.271 C 764.846 933.941, 770.482 931.562, 772.094 932.558 C 772.924 933.071, 773.050 932.889, 772.490 931.985 C 771.891 931.015, 772.132 930.836, 773.388 931.319 C 774.544 931.762, 774.870 931.599, 774.388 930.819 C 773.905 930.038, 774.231 929.875, 775.388 930.319 C 776.544 930.762, 776.870 930.599, 776.388 929.819 C 775.905 929.038, 776.231 928.875, 777.388 929.319 C 778.332 929.681, 778.875 929.606, 778.595 929.153 C 777.895 928.021, 784.875 924.805, 786.223 925.638 C 786.921 926.069, 787.017 925.836, 786.490 924.985 C 785.891 924.015, 786.132 923.836, 787.388 924.319 C 788.544 924.762, 788.870 924.599, 788.388 923.819 C 787.905 923.038, 788.231 922.875, 789.388 923.319 C 790.544 923.762, 790.870 923.599, 790.388 922.819 C 789.905 922.038, 790.231 921.875, 791.388 922.319 C 792.544 922.762, 792.870 922.599, 792.388 921.819 C 791.905 921.038, 792.231 920.875, 793.388 921.319 C 794.357 921.691, 794.852 921.569, 794.524 921.039 C 793.753 919.791, 797.728 917.714, 799.175 918.608 C 799.922 919.070, 800.030 918.857, 799.490 917.985 C 798.897 917.025, 799.127 916.835, 800.324 917.294 C 801.343 917.685, 801.885 917.463, 801.738 916.714 C 801.607 916.046, 802.283 915.562, 803.239 915.637 C 804.228 915.715, 804.697 915.318, 804.325 914.717 C 803.919 914.060, 804.297 913.900, 805.324 914.294 C 806.343 914.685, 806.885 914.463, 806.738 913.714 C 806.607 913.046, 807.283 912.562, 808.239 912.637 C 809.228 912.715, 809.697 912.318, 809.325 911.717 C 808.921 911.063, 809.293 910.899, 810.304 911.286 C 811.202 911.631, 812.245 911.413, 812.622 910.802 C 813.067 910.082, 812.848 909.976, 812 910.500 C 811.108 911.051, 810.932 910.920, 811.447 910.086 C 811.862 909.414, 812.817 909.100, 813.569 909.388 C 814.321 909.677, 815.245 909.413, 815.622 908.802 C 816.067 908.082, 815.848 907.976, 815 908.500 C 814.108 909.051, 813.932 908.920, 814.447 908.086 C 814.862 907.414, 815.817 907.100, 816.569 907.388 C 817.321 907.677, 818.245 907.413, 818.622 906.802 C 819.067 906.082, 818.848 905.976, 818 906.500 C 817.108 907.051, 816.932 906.920, 817.447 906.086 C 817.862 905.414, 818.817 905.100, 819.569 905.388 C 820.321 905.677, 821.245 905.413, 821.622 904.802 C 822.067 904.082, 821.848 903.976, 821 904.500 C 820.108 905.051, 819.932 904.920, 820.447 904.086 C 820.862 903.414, 821.817 903.100, 822.569 903.388 C 823.321 903.677, 824.245 903.413, 824.622 902.802 C 825.079 902.064, 824.838 901.975, 823.905 902.537 C 822.705 903.260, 822.706 903.130, 823.910 901.646 C 824.686 900.691, 825.909 900.135, 826.628 900.411 C 827.347 900.687, 828.245 900.413, 828.622 899.802 C 829.067 899.082, 828.848 898.976, 828 899.500 C 827.108 900.051, 826.932 899.920, 827.447 899.086 C 827.862 898.414, 828.799 898.093, 829.528 898.372 C 830.257 898.652, 831.449 898.120, 832.177 897.191 C 833.393 895.637, 833.338 895.621, 831.500 897 C 829.633 898.400, 829.594 898.380, 830.910 896.704 C 831.686 895.717, 832.890 895.128, 833.587 895.395 C 834.284 895.662, 835.449 895.120, 836.177 894.191 C 837.391 892.639, 837.336 892.622, 835.500 893.983 C 833.513 895.456, 833.513 895.451, 835.437 893.197 C 836.502 891.950, 837.932 891.144, 838.614 891.405 C 839.296 891.667, 840.449 891.120, 841.177 890.191 C 842.391 888.639, 842.336 888.622, 840.500 889.983 C 838.513 891.456, 838.513 891.451, 840.437 889.197 C 841.502 887.950, 842.922 887.140, 843.593 887.397 C 844.263 887.655, 845.642 886.883, 846.656 885.683 C 848.476 883.529, 848.473 883.520, 846.445 885 C 845.314 885.825, 845.673 885.249, 847.243 883.721 C 848.813 882.192, 850.454 881.162, 850.890 881.432 C 851.326 881.702, 853.217 880.252, 855.092 878.211 L 858.500 874.500 854.931 877.500 C 852.969 879.150, 854.297 877.718, 857.884 874.318 C 861.471 870.917, 864.856 868.217, 865.407 868.318 C 865.958 868.418, 866.430 867.825, 866.455 867 C 866.480 866.175, 867.175 865.480, 868 865.455 C 868.825 865.430, 869.413 864.942, 869.306 864.372 C 869.199 863.801, 871.674 860.641, 874.806 857.350 C 877.938 854.059, 878.925 853.196, 877 855.433 L 873.500 859.500 877.709 855.587 C 880.023 853.436, 881.698 851.320, 881.429 850.886 C 881.161 850.452, 882.192 848.816, 883.721 847.250 C 885.989 844.927, 886.132 844.872, 884.500 846.952 L 882.500 849.500 885.178 847.144 C 886.651 845.847, 887.647 844.244, 887.392 843.580 C 887.138 842.917, 887.958 841.502, 889.215 840.437 L 891.500 838.500 889.500 841 L 887.500 843.500 889.683 841.656 C 890.883 840.642, 891.640 839.225, 891.365 838.509 C 891.090 837.792, 892.437 836.006, 894.358 834.541 C 896.279 833.075, 898.638 830.667, 899.600 829.188 C 901.301 826.575, 901.297 826.542, 899.464 828 C 897.944 829.209, 898.020 828.869, 899.857 826.250 C 901.111 824.462, 902.386 823, 902.691 823 C 902.995 823, 902.627 823.788, 901.872 824.750 C 900.639 826.323, 900.671 826.366, 902.191 825.177 C 903.120 824.449, 903.652 823.257, 903.372 822.528 C 903.093 821.799, 903.414 820.862, 904.086 820.447 C 904.920 819.932, 905.051 820.108, 904.500 821 C 903.976 821.848, 904.082 822.067, 904.802 821.622 C 905.413 821.245, 905.677 820.321, 905.388 819.569 C 905.100 818.817, 905.414 817.862, 906.086 817.447 C 906.920 816.932, 907.051 817.108, 906.500 818 C 905.976 818.848, 906.082 819.067, 906.802 818.622 C 907.413 818.245, 907.715 817.388, 907.474 816.718 C 907.233 816.048, 907.967 814.375, 909.105 813 C 910.242 811.625, 910.876 811.175, 910.513 812 C 909.595 814.082, 912.917 809.961, 914.140 807.500 C 914.866 806.040, 914.549 806.175, 912.968 808 C 910.843 810.453, 910.845 810.425, 913.061 806.500 C 915.729 801.776, 917.755 799.417, 916.067 803 C 914.987 805.293, 915.013 805.347, 916.376 803.653 C 917.194 802.637, 917.659 801.274, 917.409 800.624 C 917.160 799.974, 917.674 798.556, 918.552 797.471 C 919.430 796.387, 919.820 796.132, 919.420 796.905 C 918.952 797.805, 919.089 798.063, 919.802 797.622 C 920.413 797.245, 920.631 796.202, 920.286 795.304 C 919.871 794.220, 920.049 793.913, 920.819 794.388 C 921.599 794.870, 921.762 794.544, 921.319 793.388 C 920.836 792.132, 921.015 791.891, 921.985 792.490 C 922.840 793.019, 923.069 792.921, 922.632 792.214 C 921.812 790.887, 930.055 773.916, 931.182 774.612 C 931.619 774.883, 931.681 774.332, 931.319 773.388 C 930.875 772.231, 931.038 771.905, 931.819 772.388 C 932.599 772.870, 932.762 772.544, 932.319 771.388 C 931.836 770.132, 932.015 769.891, 932.985 770.490 C 933.869 771.037, 934.070 770.923, 933.590 770.146 C 932.651 768.627, 933.872 764.803, 935.061 765.537 C 935.566 765.850, 935.682 765.334, 935.319 764.388 C 934.836 763.132, 935.015 762.891, 935.985 763.490 C 936.869 764.037, 937.070 763.923, 936.590 763.146 C 935.651 761.627, 936.872 757.803, 938.061 758.537 C 938.565 758.849, 938.763 758.518, 938.500 757.802 C 937.807 755.908, 946.591 731.368, 947.350 733.078 C 947.697 733.860, 947.743 733.526, 947.450 732.335 C 947.158 731.144, 947.222 728.964, 947.592 727.490 C 948.106 725.440, 948.491 725.126, 949.227 726.155 C 949.928 727.135, 950.018 726.979, 949.561 725.580 C 948.663 722.837, 951.080 712.558, 952.233 714.212 C 952.833 715.072, 952.934 714.793, 952.537 713.373 C 952.211 712.203, 953.044 705.228, 954.388 697.873 C 958.164 677.221, 959.369 663.340, 959.369 640.500 C 959.369 617.660, 958.164 603.779, 954.388 583.127 C 953.044 575.772, 952.211 568.797, 952.537 567.627 C 953.028 565.870, 952.931 565.761, 951.981 567 C 951.073 568.185, 950.954 567.765, 951.414 565 C 951.858 562.334, 951.739 561.857, 950.914 563 C 950.090 564.143, 949.970 563.666, 950.414 561 C 950.735 559.075, 950.647 558.040, 950.220 558.701 C 949.434 559.914, 941.774 536.511, 941.594 532.345 C 941.542 531.161, 941.228 530.359, 940.896 530.564 C 939.882 531.191, 934.795 517.141, 935.578 515.875 C 936.008 515.178, 935.882 514.955, 935.271 515.333 C 933.941 516.154, 931.562 510.518, 932.558 508.906 C 933.071 508.076, 932.889 507.950, 931.985 508.510 C 931.015 509.109, 930.836 508.868, 931.319 507.612 C 931.762 506.456, 931.599 506.130, 930.819 506.612 C 930.038 507.095, 929.875 506.769, 930.319 505.612 C 930.762 504.456, 930.599 504.130, 929.819 504.612 C 929.038 505.095, 928.875 504.769, 929.319 503.612 C 929.681 502.668, 929.611 502.122, 929.164 502.399 C 928.033 503.097, 923.807 494.120, 924.636 492.780 C 925.069 492.079, 924.837 491.982, 923.985 492.510 C 923.015 493.109, 922.836 492.868, 923.319 491.612 C 923.762 490.456, 923.599 490.130, 922.819 490.612 C 922.038 491.095, 921.875 490.769, 922.319 489.612 C 922.762 488.456, 922.599 488.130, 921.819 488.612 C 921.049 489.087, 920.871 488.780, 921.286 487.696 C 921.631 486.798, 921.413 485.755, 920.802 485.378 C 920.089 484.937, 919.952 485.195, 920.420 486.095 C 920.820 486.868, 920.430 486.613, 919.552 485.529 C 918.674 484.444, 918.186 482.959, 918.466 482.227 C 918.782 481.405, 918.534 481.170, 917.819 481.612 C 917.049 482.087, 916.871 481.780, 917.286 480.696 C 917.631 479.798, 917.413 478.755, 916.802 478.378 C 916.089 477.937, 915.952 478.195, 916.420 479.095 C 916.820 479.868, 916.430 479.613, 915.552 478.529 C 914.674 477.444, 914.171 475.996, 914.434 475.311 C 914.697 474.625, 914.413 473.755, 913.802 473.378 C 913.089 472.937, 912.952 473.195, 913.420 474.095 C 913.820 474.868, 913.407 474.600, 912.501 473.500 C 911.595 472.400, 910.406 470.600, 909.860 469.500 C 909.129 468.029, 909.444 468.161, 911.052 470 L 913.237 472.500 911.450 469.500 C 907.192 462.356, 904.641 458.995, 902.321 457.475 C 900.958 456.582, 900.077 455.243, 900.362 454.499 C 900.648 453.755, 900.120 452.551, 899.191 451.823 C 897.637 450.607, 897.621 450.662, 899 452.500 C 900.400 454.367, 900.380 454.406, 898.704 453.090 C 897.717 452.314, 897.128 451.110, 897.395 450.413 C 897.662 449.716, 897.120 448.551, 896.191 447.823 C 894.671 446.634, 894.639 446.677, 895.872 448.250 C 896.627 449.212, 897.018 450, 896.741 450 C 896.464 450, 894.976 448.313, 893.434 446.250 C 891.483 443.641, 891.232 442.956, 892.609 444 C 893.698 444.825, 892.973 443.925, 891 442 C 889.027 440.075, 888.332 439.163, 889.456 439.974 C 890.580 440.785, 888.858 438.917, 885.629 435.824 C 882.401 432.730, 880.018 429.780, 880.335 429.268 C 880.651 428.755, 878.568 426.123, 875.705 423.418 L 870.500 418.500 875 423.564 C 877.475 426.349, 876.483 425.541, 872.795 421.768 C 869.108 417.996, 863.003 411.892, 859.230 408.205 C 855.456 404.517, 854.423 403.300, 856.934 405.500 L 861.500 409.500 857.084 404.793 C 854.656 402.205, 852.315 400.305, 851.883 400.572 C 851.450 400.840, 849.816 399.808, 848.250 398.279 C 845.927 396.011, 845.872 395.868, 847.952 397.500 L 850.500 399.500 848.144 396.822 C 846.847 395.349, 845.244 394.353, 844.580 394.608 C 843.917 394.862, 842.502 394.050, 841.437 392.803 C 839.513 390.549, 839.513 390.544, 841.500 392.017 C 843.349 393.388, 843.397 393.369, 842.137 391.761 C 841.387 390.805, 840.421 390.240, 839.991 390.506 C 839.560 390.772, 838.353 390.204, 837.307 389.245 C 836.261 388.285, 836.102 387.928, 836.953 388.452 C 838.247 389.248, 838.289 389.168, 837.212 387.963 C 836.503 387.171, 835.154 386.518, 834.214 386.512 C 833.274 386.505, 832.494 385.825, 832.480 385 C 832.466 384.175, 831.738 383.618, 830.861 383.763 C 829.984 383.908, 828.644 383.259, 827.883 382.321 C 826.702 380.865, 826.705 380.740, 827.905 381.463 C 828.838 382.025, 829.079 381.936, 828.622 381.198 C 828.245 380.587, 827.321 380.323, 826.569 380.612 C 825.817 380.900, 824.862 380.586, 824.447 379.914 C 823.922 379.065, 824.121 378.940, 825.095 379.506 C 825.914 379.981, 826.157 379.946, 825.679 379.423 C 825.228 378.929, 824.103 378.520, 823.179 378.513 C 822.256 378.506, 821.613 377.937, 821.750 377.250 C 821.888 376.562, 821.663 376.053, 821.250 376.118 C 819.239 376.436, 817.947 375.895, 818.515 374.975 C 818.864 374.412, 818.778 374.015, 818.324 374.094 C 816.386 374.430, 814.922 373.934, 815.430 373.113 C 815.732 372.625, 815.196 372.288, 814.239 372.363 C 813.283 372.438, 812.595 371.990, 812.711 371.368 C 812.827 370.745, 812.152 370.295, 811.211 370.368 C 810.270 370.440, 809.607 369.954, 809.738 369.286 C 809.869 368.618, 809.352 368.311, 808.589 368.604 C 807.826 368.897, 806.862 368.586, 806.447 367.914 C 805.932 367.080, 806.108 366.949, 807 367.500 C 807.873 368.039, 808.068 367.919, 807.585 367.138 C 807.187 366.494, 806.456 366.218, 805.960 366.525 C 804.538 367.404, 798.844 364.061, 799.622 362.803 C 800.032 362.140, 799.855 361.972, 799.184 362.386 C 797.732 363.284, 791.749 360.215, 792.519 358.969 C 792.852 358.430, 792.365 358.306, 791.388 358.681 C 790.231 359.125, 789.905 358.962, 790.388 358.181 C 790.870 357.401, 790.544 357.238, 789.388 357.681 C 788.231 358.125, 787.905 357.962, 788.388 357.181 C 788.870 356.401, 788.544 356.238, 787.388 356.681 C 786.231 357.125, 785.905 356.962, 786.388 356.181 C 786.870 355.401, 786.544 355.238, 785.388 355.681 C 784.231 356.125, 783.905 355.962, 784.388 355.181 C 784.870 354.401, 784.544 354.238, 783.388 354.681 C 782.231 355.125, 781.905 354.962, 782.388 354.181 C 782.870 353.401, 782.544 353.238, 781.388 353.681 C 780.231 354.125, 779.905 353.962, 780.388 353.181 C 780.870 352.401, 780.544 352.238, 779.388 352.681 C 778.231 353.125, 777.905 352.962, 778.388 352.181 C 778.870 351.401, 778.544 351.238, 777.388 351.681 C 776.231 352.125, 775.905 351.962, 776.388 351.181 C 776.870 350.401, 776.544 350.238, 775.388 350.681 C 774.132 351.164, 773.891 350.985, 774.490 350.015 C 775.050 349.111, 774.924 348.929, 774.094 349.442 C 772.482 350.438, 766.846 348.059, 767.667 346.729 C 768.051 346.109, 767.820 345.993, 767.094 346.442 C 765.482 347.438, 759.846 345.059, 760.667 343.729 C 761.041 343.125, 760.823 342.991, 760.146 343.410 C 758.510 344.421, 754.830 343.084, 755.640 341.773 C 756.041 341.125, 755.842 340.980, 755.144 341.411 C 753.473 342.444, 727.746 333.802, 729.282 332.724 C 730.042 332.191, 729.709 332.089, 728.398 332.455 C 727.242 332.777, 721.617 331.903, 715.898 330.512 C 686.312 323.317, 653.288 320.354, 622 322.086 M 111.494 640.500 C 111.494 814.850, 111.609 886.026, 111.750 798.669 C 111.891 711.312, 111.891 568.662, 111.750 481.669 C 111.609 394.676, 111.494 466.150, 111.494 640.500 M 1169.494 640.500 C 1169.494 813.200, 1169.609 883.701, 1169.750 797.169 C 1169.891 710.637, 1169.891 569.337, 1169.750 483.169 C 1169.609 397.001, 1169.494 467.800, 1169.494 640.500 M 620.500 420.589 C 618.850 420.822, 613.900 421.483, 609.500 422.058 C 592.438 424.287, 558.268 434.007, 559.648 436.239 C 560.051 436.891, 559.834 437.015, 559.094 436.558 C 557.482 435.562, 551.846 437.941, 552.667 439.271 C 553.055 439.898, 552.818 440.006, 552.068 439.542 C 550.587 438.626, 542.824 441.906, 543.579 443.128 C 543.868 443.595, 543.332 443.681, 542.388 443.319 C 541.231 442.875, 540.905 443.038, 541.388 443.819 C 541.870 444.599, 541.544 444.762, 540.388 444.319 C 539.132 443.836, 538.891 444.015, 539.490 444.985 C 540.030 445.857, 539.922 446.070, 539.175 445.608 C 537.728 444.714, 533.753 446.791, 534.524 448.039 C 534.852 448.569, 534.357 448.691, 533.388 448.319 C 532.231 447.875, 531.905 448.038, 532.388 448.819 C 532.870 449.599, 532.544 449.762, 531.388 449.319 C 530.308 448.904, 529.914 449.052, 530.325 449.717 C 530.697 450.318, 530.228 450.715, 529.239 450.637 C 528.283 450.562, 527.607 451.046, 527.738 451.714 C 527.885 452.463, 527.343 452.685, 526.324 452.294 C 525.297 451.900, 524.919 452.060, 525.325 452.717 C 525.697 453.318, 525.228 453.715, 524.239 453.637 C 523.283 453.562, 522.595 454.010, 522.711 454.632 C 522.827 455.255, 522.152 455.705, 521.211 455.632 C 520.270 455.560, 519.607 456.046, 519.738 456.714 C 519.869 457.382, 519.352 457.689, 518.589 457.396 C 517.826 457.103, 516.862 457.414, 516.447 458.086 C 515.922 458.935, 516.121 459.060, 517.095 458.494 C 517.914 458.019, 518.157 458.054, 517.679 458.577 C 517.228 459.071, 516.103 459.480, 515.179 459.487 C 514.256 459.494, 513.624 460.096, 513.775 460.824 C 513.926 461.553, 513.655 461.905, 513.172 461.606 C 512.689 461.308, 511.441 461.758, 510.397 462.606 C 509.354 463.454, 509.132 463.820, 509.905 463.420 C 510.805 462.952, 511.063 463.089, 510.622 463.802 C 510.245 464.413, 509.347 464.687, 508.628 464.411 C 507.909 464.135, 506.686 464.691, 505.910 465.646 C 504.706 467.130, 504.705 467.260, 505.905 466.537 C 506.865 465.959, 507.080 466.061, 506.585 466.862 C 506.187 467.506, 505.468 467.789, 504.986 467.491 C 503.813 466.766, 492.575 476.647, 481.500 488.140 C 476.550 493.277, 474.536 495.684, 477.025 493.490 C 479.513 491.295, 478.146 492.875, 473.986 497 C 466.461 504.462, 459.434 513.174, 463.500 510 C 465.108 508.745, 465.049 509.031, 463.143 511.750 C 461.889 513.538, 460.614 515, 460.309 515 C 460.005 515, 460.315 514.325, 461 513.500 C 461.685 512.675, 461.968 512, 461.630 512 C 460.419 512, 451.811 525.884, 452.415 526.863 C 452.755 527.412, 452.506 528.187, 451.862 528.585 C 451.071 529.074, 450.951 528.853, 451.492 527.905 C 452.046 526.933, 451.965 526.808, 451.229 527.500 C 448.889 529.698, 438.838 550.137, 439.390 551.574 C 439.713 552.416, 439.567 552.850, 439.066 552.541 C 437.279 551.436, 427.516 579.767, 428.491 583.228 C 428.909 584.712, 428.819 585.053, 428.233 584.211 C 427.301 582.875, 424.214 595.159, 421.753 610 C 419.854 621.448, 420.179 662.126, 422.264 674 C 425.209 690.769, 427.171 698.325, 428.196 696.848 C 428.840 695.919, 428.932 696.207, 428.491 697.774 C 427.653 700.747, 434.731 722.284, 436.239 721.352 C 436.875 720.959, 437.017 721.163, 436.590 721.854 C 435.651 723.373, 436.872 727.197, 438.061 726.463 C 438.566 726.150, 438.682 726.666, 438.319 727.612 C 437.875 728.769, 438.038 729.095, 438.819 728.612 C 439.564 728.152, 439.774 728.425, 439.409 729.378 C 438.849 730.836, 447.446 748.694, 450.556 752.534 C 451.432 753.615, 451.863 753.938, 451.515 753.250 C 450.415 751.079, 451.876 751.899, 453.065 754.121 C 453.936 755.749, 453.921 756.069, 453 755.500 C 452.103 754.946, 452.059 755.230, 452.827 756.629 C 454.021 758.804, 457.458 763.110, 456.515 761.250 C 455.345 758.940, 456.752 759.973, 458.560 762.750 C 460.303 765.429, 460.300 765.461, 458.468 764 C 454.583 760.903, 465.764 775.763, 472.011 782 C 475.592 785.575, 476.966 787.150, 475.064 785.500 C 473.163 783.850, 475.150 786.464, 479.480 791.309 C 486.690 799.377, 490.514 802.693, 492.108 802.260 C 492.443 802.169, 494.018 803.536, 495.608 805.297 L 498.500 808.500 495.454 806 C 492.664 803.710, 492.687 803.777, 495.733 806.791 C 497.563 808.601, 499.445 809.843, 499.916 809.552 C 500.388 809.260, 501.387 809.805, 502.137 810.761 C 503.397 812.369, 503.349 812.388, 501.500 811.017 C 499.513 809.544, 499.513 809.549, 501.437 811.803 C 502.502 813.050, 503.932 813.856, 504.614 813.595 C 505.296 813.333, 506.449 813.880, 507.177 814.809 C 508.366 816.329, 508.323 816.361, 506.750 815.128 C 505.788 814.373, 505 813.997, 505 814.292 C 505 815.443, 515.015 822.108, 515.912 821.555 C 516.434 821.232, 517.187 821.494, 517.585 822.138 C 518.067 822.917, 517.839 823.061, 516.905 822.568 C 516.132 822.160, 516.625 822.758, 518 823.895 C 519.375 825.033, 521.048 825.767, 521.718 825.526 C 522.388 825.285, 523.245 825.587, 523.622 826.198 C 524.067 826.918, 523.848 827.024, 523 826.500 C 522.108 825.949, 521.932 826.080, 522.447 826.914 C 522.862 827.586, 523.826 827.897, 524.589 827.604 C 525.352 827.311, 525.869 827.618, 525.738 828.286 C 525.607 828.954, 526.283 829.438, 527.239 829.363 C 528.228 829.285, 528.697 829.682, 528.325 830.283 C 527.914 830.948, 528.308 831.096, 529.388 830.681 C 530.544 830.238, 530.870 830.401, 530.388 831.181 C 529.911 831.953, 530.223 832.128, 531.324 831.706 C 532.343 831.315, 532.885 831.537, 532.738 832.286 C 532.607 832.954, 533.283 833.438, 534.239 833.363 C 535.228 833.285, 535.697 833.682, 535.325 834.283 C 534.914 834.948, 535.308 835.096, 536.388 834.681 C 537.332 834.319, 537.878 834.389, 537.602 834.835 C 536.825 836.092, 552.534 843.406, 554.027 842.483 C 554.830 841.987, 555.062 842.090, 554.648 842.760 C 553.804 844.126, 562.398 847.490, 564.078 846.452 C 564.834 845.985, 565.054 846.104, 564.647 846.762 C 563.734 848.240, 576.303 852.333, 579.228 851.509 C 580.825 851.059, 581.092 851.151, 580.129 851.818 C 578.300 853.084, 596.542 857.422, 612.301 859.468 C 627.160 861.397, 654.079 861.414, 668.500 859.504 C 684.069 857.441, 695.415 854.890, 693.806 853.813 C 692.979 853.260, 693.444 853.157, 695.072 853.533 C 698.455 854.315, 720.329 847.342, 719.369 845.788 C 718.960 845.126, 719.152 844.976, 719.854 845.410 C 721.490 846.421, 725.170 845.084, 724.360 843.773 C 723.936 843.088, 724.164 842.983, 724.982 843.489 C 726.478 844.413, 746.174 835.091, 745.394 833.828 C 745.120 833.385, 745.668 833.319, 746.612 833.681 C 747.692 834.096, 748.086 833.948, 747.675 833.283 C 747.303 832.682, 747.772 832.285, 748.761 832.363 C 749.717 832.438, 750.393 831.954, 750.262 831.286 C 750.131 830.618, 750.594 830.291, 751.291 830.558 C 751.987 830.825, 753.444 830.326, 754.529 829.448 C 755.613 828.570, 755.868 828.180, 755.095 828.580 C 754.195 829.048, 753.937 828.911, 754.378 828.198 C 754.755 827.587, 755.798 827.369, 756.696 827.714 C 757.707 828.101, 758.079 827.937, 757.675 827.283 C 757.303 826.682, 757.772 826.285, 758.761 826.363 C 759.717 826.438, 760.405 825.990, 760.289 825.368 C 760.173 824.745, 760.848 824.295, 761.789 824.368 C 762.730 824.440, 763.405 823.990, 763.289 823.368 C 763.173 822.745, 763.848 822.295, 764.789 822.368 C 765.730 822.440, 766.376 821.904, 766.225 821.176 C 766.074 820.447, 766.345 820.095, 766.828 820.394 C 767.311 820.692, 768.559 820.242, 769.603 819.394 C 770.646 818.546, 770.868 818.180, 770.095 818.580 C 769.195 819.048, 768.937 818.911, 769.378 818.198 C 769.755 817.587, 770.653 817.313, 771.372 817.589 C 772.091 817.865, 773.314 817.309, 774.090 816.354 C 775.294 814.870, 775.295 814.740, 774.095 815.463 C 773.135 816.041, 772.920 815.939, 773.415 815.138 C 773.813 814.494, 774.519 814.203, 774.984 814.490 C 775.906 815.060, 778.711 812.909, 789.685 803.217 C 796.861 796.879, 813.086 779.267, 807.388 784 C 805.733 785.375, 806.442 784.475, 808.963 782 C 811.484 779.525, 812.842 777.950, 811.980 778.500 C 811.117 779.050, 812.042 777.925, 814.035 776 C 816.027 774.075, 818.297 771.600, 819.079 770.500 C 820.423 768.608, 820.394 768.581, 818.539 770 C 816.840 771.300, 816.882 771.067, 818.857 768.250 C 820.974 765.231, 823.308 763.419, 821.372 766.297 C 820.893 767.011, 821.411 766.568, 822.525 765.313 C 825.318 762.166, 828.565 756.533, 827.044 757.473 C 826.072 758.073, 826.048 757.778, 826.935 756.121 C 828.124 753.899, 829.585 753.079, 828.485 755.250 C 828.137 755.938, 828.582 755.600, 829.474 754.500 C 832.386 750.911, 843.683 727.738, 847.511 717.500 C 864.348 672.476, 865.572 621.137, 850.940 573.716 C 848.964 567.314, 847.535 564.169, 846.806 564.620 C 846.104 565.053, 845.973 564.852, 846.452 564.078 C 847.401 562.541, 844.162 553.782, 842.926 554.546 C 842.429 554.853, 842.284 554.424, 842.603 553.592 C 843.206 552.021, 831.441 528.411, 827.857 524 C 826.740 522.625, 826.130 522.175, 826.500 523 C 826.870 523.825, 826.242 523.375, 825.105 522 C 823.967 520.625, 823.233 518.952, 823.474 518.282 C 823.715 517.612, 823.413 516.755, 822.802 516.378 C 822.129 515.962, 821.972 516.146, 822.405 516.845 C 823.925 519.305, 822.132 517.849, 820.440 515.250 C 818.697 512.571, 818.699 512.539, 820.533 514 C 824.320 517.017, 815.312 505.312, 808.989 499 C 805.408 495.425, 804.034 493.850, 805.936 495.500 C 807.837 497.150, 805.850 494.536, 801.520 489.691 C 794.310 481.623, 790.486 478.307, 788.892 478.740 C 788.557 478.831, 786.982 477.464, 785.392 475.703 L 782.500 472.500 785.546 475 C 788.336 477.290, 788.313 477.223, 785.267 474.209 C 783.437 472.399, 781.555 471.157, 781.084 471.448 C 780.612 471.740, 779.613 471.195, 778.863 470.239 C 777.603 468.631, 777.651 468.612, 779.500 469.983 C 781.487 471.456, 781.487 471.451, 779.563 469.197 C 778.498 467.950, 777.068 467.144, 776.386 467.405 C 775.704 467.667, 774.551 467.120, 773.823 466.191 C 772.607 464.637, 772.662 464.621, 774.500 466 C 776.367 467.400, 776.406 467.380, 775.090 465.704 C 774.314 464.717, 773.091 464.135, 772.372 464.411 C 771.653 464.687, 770.755 464.413, 770.378 463.802 C 769.921 463.064, 770.162 462.975, 771.095 463.537 C 772.295 464.260, 772.294 464.130, 771.090 462.646 C 770.314 461.691, 769.091 461.135, 768.372 461.411 C 767.653 461.687, 766.755 461.413, 766.378 460.802 C 765.962 460.129, 766.146 459.972, 766.845 460.405 C 767.480 460.797, 768 460.919, 768 460.676 C 768 459.611, 754.994 451.886, 754.115 452.429 C 753.578 452.761, 752.813 452.506, 752.415 451.862 C 751.935 451.085, 752.164 450.936, 753.095 451.420 C 753.868 451.820, 753.613 451.430, 752.529 450.552 C 751.444 449.674, 749.959 449.186, 749.227 449.466 C 748.495 449.747, 748.162 449.547, 748.487 449.021 C 749.257 447.775, 735.261 440.721, 733.804 441.621 C 733.156 442.022, 732.970 441.857, 733.360 441.227 C 734.170 439.916, 730.490 438.579, 728.854 439.590 C 728.077 440.070, 727.963 439.869, 728.510 438.985 C 729.109 438.015, 728.868 437.836, 727.612 438.319 C 726.666 438.682, 726.150 438.566, 726.463 438.061 C 727.197 436.872, 723.373 435.651, 721.854 436.590 C 721.162 437.018, 720.959 436.875, 721.355 436.235 C 722.173 434.911, 715.525 432.557, 713.865 433.583 C 713.150 434.025, 712.958 433.878, 713.373 433.205 C 714.274 431.747, 700.686 427.676, 697.709 428.511 C 696.159 428.946, 695.905 428.850, 696.858 428.190 C 698.287 427.200, 690.529 425.171, 674.552 422.358 C 666.823 420.997, 626.873 419.690, 620.500 420.589 M 483.831 1169.750 C 570.363 1169.891, 711.663 1169.891, 797.831 1169.750 C 883.999 1169.609, 813.200 1169.494, 640.500 1169.494 C 467.800 1169.494, 397.299 1169.609, 483.831 1169.750" stroke="none" fill="#ffffff" fill-rule="evenodd"/>
</svg>