<svg xmlns="http://www.w3.org/2000/svg" width="879" height="866" viewBox="0 0 879 866" version="1.1">
	<path d="M 398 4.508 C 367.572 7.554, 342.907 12.218, 316.113 19.994 C 213.722 49.710, 126.602 116.012, 69.735 207.496 C -0.220 320.035, -14.013 460.962, 32.651 586.403 C 54.543 645.252, 89.138 698.387, 134.655 743.074 C 168.019 775.829, 201.209 799.675, 242.500 820.559 C 289.729 844.447, 337.380 858.636, 390 864.481 C 406.045 866.263, 464.106 866.571, 480.144 864.959 C 554.240 857.511, 624.063 831.743, 684 789.727 C 777.321 724.309, 841.036 625.455, 861.394 514.500 C 865.269 493.385, 866.811 479.677, 867.975 456 C 871.085 392.736, 861.370 333.492, 838.295 275 C 806.431 194.234, 749.613 123.929, 676.886 75.280 C 624.782 40.425, 563.153 16.489, 502.500 7.550 C 471.729 3.015, 426.166 1.689, 398 4.508 M 329.500 234.079 C 271.063 237.347, 218.582 245.291, 177.589 257.074 C 159.190 262.363, 150.831 268.336, 144.066 281.028 C 137.553 293.248, 139.068 309.267, 147.836 320.883 C 152.653 327.264, 156.567 330.445, 163.662 333.747 C 168.720 336.101, 170.769 336.464, 179 336.468 C 187.023 336.471, 190.443 335.900, 201 332.791 C 252.282 317.688, 326.698 309.804, 396.576 312.070 C 511.415 315.794, 606.426 338.527, 685.149 381.113 C 696.449 387.227, 701.641 389.460, 706.469 390.287 C 730.166 394.347, 753 374.610, 753 350.067 C 753 339.905, 747.615 328.259, 739.704 321.313 C 732.309 314.820, 696.762 296.124, 673.500 286.493 C 612.094 261.068, 530.466 242.603, 450.500 236.049 C 413.332 233.002, 363.316 232.188, 329.500 234.079 M 336 381.672 C 287.130 384.356, 247.107 390.528, 206.500 401.643 C 189.491 406.299, 184.231 408.873, 178.166 415.509 C 172.168 422.072, 170 427.915, 170 437.518 C 170 443.495, 170.503 445.687, 173.036 450.757 C 181.555 467.803, 196.756 472.343, 221.500 465.230 C 245.595 458.304, 274.357 452.957, 307.031 449.329 C 330.476 446.725, 396.885 446.724, 421.500 449.326 C 486.448 456.192, 538.752 469.222, 589.500 491.180 C 606.859 498.691, 615.641 503.058, 633.514 513.070 C 649.573 522.065, 654.934 523.668, 663.604 522.065 C 678.613 519.291, 688.291 509.613, 691.065 494.604 C 692.990 484.191, 689.643 474.665, 681.345 466.942 C 675.771 461.755, 653.085 448.752, 632.592 438.997 C 553.604 401.399, 456.501 380.504, 364 381.200 C 351.625 381.294, 339.025 381.506, 336 381.672 M 346 522.583 C 343.525 522.793, 334.300 523.445, 325.500 524.033 C 290.316 526.382, 252.763 531.899, 216.865 539.993 C 202.481 543.237, 197.189 545.575, 193.608 550.269 C 184.600 562.080, 184.946 574.880, 194.533 584.467 C 203.285 593.218, 210.164 593.779, 238.795 588.074 C 283.186 579.229, 318.092 575.182, 357.516 574.309 C 448.263 572.301, 522.935 590.254, 594.268 631.233 C 601.835 635.580, 603.964 636.336, 609.806 636.754 C 618.542 637.379, 625.379 634.649, 630.963 628.305 C 639.947 618.098, 640.331 605.202, 631.933 595.661 C 625.757 588.645, 604.426 576.427, 577.500 564.484 C 525.684 541.500, 474.206 528.576, 416.500 524.063 C 402.635 522.979, 353.506 521.947, 346 522.583" stroke="none" fill="#ffffff" fill-rule="evenodd"/>
</svg>