<svg xmlns="http://www.w3.org/2000/svg" width="1280" height="1280" viewBox="0 0 1280 1280" version="1.1">
	<path d="M 638 212.508 C 607.572 215.554, 582.907 220.218, 556.113 227.994 C 453.722 257.710, 366.602 324.012, 309.735 415.496 C 239.828 527.956, 226.068 668.181, 272.651 793.403 C 294.543 852.252, 329.138 905.387, 374.655 950.074 C 408.019 982.829, 441.209 1006.675, 482.500 1027.559 C 529.910 1051.538, 575.958 1065.232, 630.801 1071.662 C 649.076 1073.805, 701.499 1074.121, 719 1072.194 C 754.916 1068.239, 783.995 1062.003, 815.385 1051.524 C 952.320 1005.808, 1058.959 891.135, 1094.855 751 C 1102.622 720.679, 1106.366 695.639, 1107.963 663.320 C 1111.064 600.603, 1101.314 541.350, 1078.295 483 C 1046.431 402.234, 989.613 331.929, 916.886 283.280 C 864.782 248.425, 803.153 224.489, 742.500 215.550 C 711.729 211.015, 666.166 209.689, 638 212.508 M 569.500 441.079 C 511.063 444.347, 458.582 452.291, 417.589 464.074 C 399.179 469.366, 390.832 475.334, 384.052 488.054 C 377.466 500.409, 379.023 517.207, 387.836 528.883 C 392.653 535.264, 396.567 538.445, 403.662 541.747 C 408.720 544.101, 410.769 544.464, 419 544.468 C 427.023 544.471, 430.443 543.900, 441 540.791 C 492.282 525.688, 566.698 517.804, 636.576 520.070 C 751.415 523.794, 846.426 546.527, 925.149 589.113 C 942.536 598.519, 948.659 600.160, 959.112 598.216 C 988.149 592.816, 1002.526 559.520, 986.118 535.672 C 981.707 529.261, 977.695 526.120, 963.674 518.100 C 877.348 468.722, 746.262 439.545, 613.500 440.158 C 597 440.234, 577.200 440.649, 569.500 441.079 M 576 588.672 C 527.130 591.356, 487.107 597.528, 446.500 608.643 C 429.491 613.299, 424.231 615.873, 418.166 622.509 C 412.065 629.184, 410 634.877, 410 645.018 C 410 651.551, 410.447 653.576, 413.036 658.757 C 421.555 675.803, 436.756 680.343, 461.500 673.230 C 485.595 666.304, 514.357 660.957, 547.031 657.329 C 570.476 654.725, 636.885 654.724, 661.500 657.326 C 726.448 664.192, 778.752 677.222, 829.500 699.180 C 846.859 706.691, 855.641 711.058, 873.514 721.070 C 889.573 730.065, 894.934 731.668, 903.604 730.065 C 918.623 727.289, 928.291 717.614, 931.070 702.579 C 933.060 691.814, 929.754 681.876, 921.648 674.260 C 912.719 665.870, 875.372 646.128, 845.610 634.065 C 770.553 603.643, 685.950 587.583, 604 588.200 C 591.625 588.294, 579.025 588.506, 576 588.672 M 586 729.583 C 583.525 729.793, 574.300 730.445, 565.500 731.033 C 530.316 733.382, 492.763 738.899, 456.865 746.993 C 442.481 750.237, 437.189 752.575, 433.608 757.269 C 424.501 769.210, 424.857 782.791, 434.533 792.467 C 443.285 801.218, 450.164 801.779, 478.795 796.074 C 523.186 787.229, 558.092 783.182, 597.516 782.309 C 688.263 780.301, 762.935 798.254, 834.268 839.233 C 841.835 843.580, 843.964 844.336, 849.806 844.754 C 858.542 845.379, 865.379 842.649, 870.963 836.305 C 880.015 826.021, 880.411 812.293, 871.933 802.661 C 865.757 795.645, 844.426 783.427, 817.500 771.484 C 765.684 748.500, 714.206 735.576, 656.500 731.063 C 642.635 729.979, 593.506 728.947, 586 729.583" stroke="none" fill="#1ed561" fill-rule="evenodd"/>
</svg>