<svg xmlns="http://www.w3.org/2000/svg" width="892" height="892" viewBox="0 0 892 892" version="1.1">
	<path d="M 470.998 2.833 C 470.337 3.054, 470 107.061, 470 311.205 C 470 647.970, 470.313 629.295, 464.341 648.398 C 460.631 660.263, 451.929 677.267, 444.505 687.157 C 433.036 702.434, 415.108 717.485, 398.500 725.776 C 358.280 745.855, 308.204 742.600, 269.987 717.422 C 230.914 691.681, 209.182 646.291, 213.043 598.490 C 217.562 542.540, 260.009 494.994, 315.711 483.488 C 332.780 479.963, 355.968 480.625, 372.112 485.098 C 376.078 486.197, 379.690 486.710, 380.160 486.240 C 380.629 485.771, 380.897 450.313, 380.756 407.444 L 380.500 329.500 375 328.854 C 361.303 327.246, 333.887 326.789, 320 327.939 C 282.461 331.045, 249.160 340.327, 215.189 357.152 C 135.934 396.405, 81.389 467.789, 64.011 555 C 60.190 574.176, 58.998 587.384, 59.010 610.424 C 59.035 661.604, 71.187 708.028, 95.805 751 C 123.257 798.917, 165.698 838.475, 216.500 863.497 C 242.063 876.088, 263.245 883.255, 291 888.703 C 303.468 891.151, 306.924 891.384, 336.206 891.761 C 364.892 892.130, 369.268 891.963, 382.153 890.012 C 472.419 876.340, 551.451 820.203, 592.641 740.500 C 609.067 708.716, 617.994 679.164, 622.698 641 C 624.347 627.621, 624.485 613.955, 624.492 464.250 C 624.497 375.013, 624.816 302, 625.202 302 C 625.588 302, 628.738 303.973, 632.202 306.385 C 643.626 314.340, 657.268 322.182, 674.196 330.523 C 721.776 353.969, 768.298 365.644, 825.250 368.433 L 837 369.009 837.179 294.504 C 837.277 253.527, 837.389 218.988, 837.429 217.750 C 837.498 215.559, 837.160 215.484, 824.500 214.882 C 748.921 211.287, 679.035 164.687, 645.463 95.500 C 632.205 68.178, 625.826 42.927, 624.682 13.246 C 624.486 8.157, 624.111 3.777, 623.848 3.515 C 623.314 2.981, 472.570 2.309, 470.998 2.833" stroke="none" fill="#ffffff" fill-rule="evenodd"/>
</svg>